<?xml version="1.0" encoding="utf-8"?>
<!-- Generator: Adobe Illustrator 16.0.0, SVG Export Plug-In . SVG Version: 6.00 Build 0)  -->
<!DOCTYPE svg PUBLIC "-//W3C//DTD SVG 1.1//EN" "http://www.w3.org/Graphics/SVG/1.1/DTD/svg11.dtd">
<svg version="1.1" id="Layer_1" xmlns="http://www.w3.org/2000/svg" xmlns:xlink="http://www.w3.org/1999/xlink" x="0px" y="0px"
	 width="1792px" height="1792px" viewBox="0 0 1792 1792" enable-background="new 0 0 1792 1792" xml:space="preserve">
<g>
	<path fill="none" d="M1375.127,1331.289c-22.471-22.472-52.348-34.847-84.127-34.847c-31.778,0-61.655,12.375-84.126,34.847
		c-22.472,22.471-34.847,52.348-34.847,84.127c0,0.362,0.01,0.723,0.014,1.084c0.278,31.373,12.617,60.827,34.833,83.043
		c22.471,22.471,52.348,34.846,84.126,34.846c31.779,0,61.656-12.375,84.127-34.846c22.215-22.216,34.554-51.669,34.832-83.043
		c0.004-0.361,0.014-0.722,0.014-1.084C1409.973,1383.637,1397.598,1353.76,1375.127,1331.289z"/>
	<path fill="none" d="M585.126,1331.289c-22.471-22.472-52.348-34.847-84.126-34.847s-61.655,12.375-84.126,34.847
		c-22.471,22.471-34.847,52.348-34.847,84.127c0,0.362,0.01,0.723,0.013,1.084c0.278,31.373,12.618,60.827,34.833,83.043
		c22.471,22.471,52.348,34.846,84.126,34.846c31.779,0,61.656-12.375,84.127-34.846c22.215-22.216,34.555-51.67,34.833-83.043
		c0.003-0.361,0.013-0.722,0.013-1.084C619.973,1383.637,607.598,1353.76,585.126,1331.289z"/>
	<path d="M1787.719,971.485c-1.473-3.82-3.285-8.524-5.391-13.985c-24.729-64.157-90.19-233.936-127.893-331.205
		c-15.124-39.017-25.782-66.371-27.55-70.55C1596.76,484.521,1527.328,438.5,1450,438.5h-138v-118c0-105.869-86.131-192-192-192H192
		c-105.869,0-192,86.131-192,192v904c0,105.869,86.131,192,192,192h62.041c0.585,135.899,110.922,245.889,246.959,245.889
		c136.038,0,246.374-109.989,246.959-245.889h296.082c0.586,135.899,110.923,245.889,246.959,245.889
		c136.038,0,246.373-109.989,246.959-245.889H1600c105.869,0,192-86.131,192-192v-230
		C1792,986.63,1790.549,978.828,1787.719,971.485z M619.96,1416.5c-0.278,31.373-12.618,60.827-34.833,83.043
		c-22.471,22.471-52.348,34.846-84.127,34.846c-31.779,0-61.656-12.375-84.126-34.846c-22.215-22.216-34.555-51.67-34.833-83.043
		c-0.003-0.361-0.013-0.722-0.013-1.084c0-31.779,12.375-61.656,34.847-84.127c22.471-22.472,52.348-34.847,84.126-34.847
		s61.656,12.375,84.126,34.847c22.471,22.471,34.847,52.348,34.847,84.127C619.973,1415.778,619.963,1416.139,619.96,1416.5z
		 M1409.959,1416.5c-0.278,31.374-12.617,60.827-34.832,83.043c-22.471,22.471-52.348,34.846-84.127,34.846
		c-31.778,0-61.655-12.375-84.126-34.846c-22.216-22.216-34.555-51.67-34.833-83.043c-0.004-0.361-0.014-0.722-0.014-1.084
		c0-31.779,12.375-61.656,34.847-84.127c22.471-22.472,52.348-34.847,84.126-34.847c31.779,0,61.656,12.375,84.127,34.847
		c22.471,22.471,34.846,52.348,34.846,84.127C1409.973,1415.778,1409.963,1416.139,1409.959,1416.5z M1348.365,957.5V626.295
		h168.764c21.386,54.878,79.343,204.978,128.017,331.205H1348.365z"/>
</g>
</svg>
