<?xml version="1.0" encoding="utf-8"?>
<!-- Generator: Adobe Illustrator 16.0.0, SVG Export Plug-In . SVG Version: 6.00 Build 0)  -->
<!DOCTYPE svg PUBLIC "-//W3C//DTD SVG 1.1//EN" "http://www.w3.org/Graphics/SVG/1.1/DTD/svg11.dtd">
<svg version="1.1" id="Layer_1" xmlns="http://www.w3.org/2000/svg" xmlns:xlink="http://www.w3.org/1999/xlink" x="0px" y="0px"
	 width="1792px" height="1792px" viewBox="0 0 1792 1792" enable-background="new 0 0 1792 1792" xml:space="preserve">
<g>
	<path d="M1608.5,1662.389h-1425c-32.305,0-59.545-24.075-63.515-56.135l-120-969.086c-2.254-18.206,3.412-36.503,15.56-50.249
		c12.148-13.745,29.611-21.617,47.955-21.617h1665c18.345,0,35.807,7.872,47.955,21.617c12.148,13.746,17.814,32.043,15.56,50.249
		l-120,969.086C1668.045,1638.313,1640.805,1662.389,1608.5,1662.389z M240.064,1534.389h1311.873l104.149-841.086H135.914
		L240.064,1534.389z"/>
</g>
<g>
	<path d="M359.96,691.318c-8.951,0-18.04-1.886-26.705-5.872c-32.112-14.771-46.169-52.777-31.399-84.889l200-434.803
		c14.771-32.111,52.776-46.168,84.889-31.399c32.112,14.771,46.169,52.777,31.399,84.889l-200,434.803
		C407.359,677.495,384.181,691.318,359.96,691.318z"/>
</g>
<g>
	<path d="M1432.04,691.318c-24.224,0-47.398-13.822-58.184-37.271l-200-434.803c-14.771-32.112-0.713-70.118,31.398-84.889
		c32.112-14.77,70.119-0.712,84.889,31.399l200,434.803c14.771,32.112,0.713,70.118-31.398,84.889
		C1450.082,689.431,1440.989,691.318,1432.04,691.318z"/>
</g>
</svg>
