<?xml version="1.0" encoding="utf-8"?>
<!-- Generator: Adobe Illustrator 16.0.0, SVG Export Plug-In . SVG Version: 6.00 Build 0)  -->
<!DOCTYPE svg PUBLIC "-//W3C//DTD SVG 1.1//EN" "http://www.w3.org/Graphics/SVG/1.1/DTD/svg11.dtd">
<svg version="1.1" id="Layer_1" xmlns="http://www.w3.org/2000/svg" xmlns:xlink="http://www.w3.org/1999/xlink" x="0px" y="0px"
	 width="1792px" height="1792px" viewBox="0 0 1792 1792" enable-background="new 0 0 1792 1792" xml:space="preserve">
<g>
	<path d="M896,940.014c-54.758,0-107.913-10.739-157.986-31.918c-48.333-20.443-91.728-49.696-128.977-86.946
		c-37.25-37.25-66.503-80.644-86.946-128.977c-21.18-50.074-31.918-103.229-31.918-157.987s10.739-107.913,31.918-157.986
		c20.443-48.333,49.696-91.727,86.946-128.977c37.25-37.25,80.644-66.503,128.977-86.946
		c50.074-21.179,103.228-31.918,157.986-31.918c54.758,0,107.912,10.739,157.985,31.918c48.334,20.443,91.728,49.696,128.978,86.946
		c37.25,37.25,66.503,80.644,86.946,128.977c21.18,50.074,31.919,103.228,31.919,157.986s-10.739,107.913-31.919,157.987
		c-20.443,48.333-49.696,91.728-86.946,128.977c-37.25,37.25-80.644,66.503-128.978,86.946
		C1003.912,929.274,950.758,940.014,896,940.014z M896,256.358c-153.195,0-277.828,124.633-277.828,277.828
		S742.805,812.014,896,812.014c153.195,0,277.828-124.633,277.828-277.828S1049.195,256.358,896,256.358z"/>
</g>
<g>
	<path d="M1728,1661.834H64c-35.346,0-64-28.654-64-64v-88.99c0-150.17,58.905-287.59,165.863-386.944
		C270.033,1025.135,411.428,971.844,564,971.844h664c75.227,0,148.014,13.215,216.342,39.275
		c67.519,25.754,127.955,62.972,179.629,110.621C1732.326,1221.656,1792,1359.132,1792,1508.844v88.99
		C1792,1633.18,1763.346,1661.834,1728,1661.834z M128,1533.834h1536v-24.99c0-233.168-187.439-409-436-409H564
		c-248.561,0-436,175.832-436,409V1533.834z"/>
</g>
</svg>
