<?xml version="1.0" encoding="utf-8"?>
<!-- Generator: Adobe Illustrator 16.0.0, SVG Export Plug-In . SVG Version: 6.00 Build 0)  -->
<!DOCTYPE svg PUBLIC "-//W3C//DTD SVG 1.1//EN" "http://www.w3.org/Graphics/SVG/1.1/DTD/svg11.dtd">
<svg version="1.1" id="Layer_1" xmlns="http://www.w3.org/2000/svg" xmlns:xlink="http://www.w3.org/1999/xlink" x="0px" y="0px"
	 width="1792px" height="1792px" viewBox="0 0 1792 1792" enable-background="new 0 0 1792 1792" xml:space="preserve">
<g>
	<g>
		<path d="M381.816,1751.279c-13.263,0.001-26.465-4.115-37.625-12.224c-20.068-14.58-29.903-39.444-25.24-63.808l103.718-541.883
			L20.221,755.876c-18.092-16.97-24.749-42.867-17.082-66.458c7.666-23.591,28.274-40.628,52.886-43.721l547.439-68.801
			L838.076,77.507c10.548-22.452,33.12-36.787,57.926-36.787c24.807,0,47.378,14.334,57.926,36.787l234.609,499.389l547.438,68.8
			c24.612,3.093,45.221,20.13,52.887,43.721s1.01,49.488-17.083,66.458l-402.445,377.489l103.718,541.883
			c4.663,24.363-5.173,49.228-25.241,63.808c-20.067,14.581-46.755,16.25-68.484,4.289l-483.323-266.09l-483.326,266.09
			C403.029,1748.655,392.403,1751.279,381.816,1751.279z M207.145,755.711l328.791,308.401c16,15.008,23.199,37.164,19.075,58.71
			l-84.733,442.694l394.858-217.385c19.218-10.58,42.514-10.58,61.732,0l394.855,217.385l-84.731-442.694
			c-4.124-21.546,3.074-43.702,19.074-58.71l328.789-308.401l-447.242-56.208c-21.768-2.736-40.617-16.431-49.945-36.287
			L896.001,255.235l-191.668,407.98c-9.328,19.856-28.178,33.551-49.945,36.287L207.145,755.711z"/>
	</g>
</g>
</svg>
