<?xml version="1.0" encoding="utf-8"?>
<!-- Generator: Adobe Illustrator 16.0.0, SVG Export Plug-In . SVG Version: 6.00 Build 0)  -->
<!DOCTYPE svg PUBLIC "-//W3C//DTD SVG 1.1//EN" "http://www.w3.org/Graphics/SVG/1.1/DTD/svg11.dtd">
<svg version="1.1" id="Layer_1" xmlns="http://www.w3.org/2000/svg" xmlns:xlink="http://www.w3.org/1999/xlink" x="0px" y="0px"
	 width="1792px" height="1792px" viewBox="0 0 1792 1792" enable-background="new 0 0 1792 1792" xml:space="preserve">
<g>
	<path d="M269.677,1662.141c-16.581,0-32.963-6.435-45.275-18.747c-20.074-20.074-24.525-50.974-10.933-75.897l106.884-195.988
		c-35.145-23.271-68.051-48.675-98.285-75.904c-45.85-41.293-85.571-86.797-118.061-135.246
		c-33.44-49.867-59.253-102.909-76.72-157.651C9.181,945.959,0,887.234,0,828.165c0-97.826,24.633-192.53,73.214-281.481
		c46.158-84.514,111.861-160.125,195.287-224.733c82.214-63.67,177.673-113.567,283.725-148.306
		C661.24,137.936,776.902,119.83,896,119.83s234.76,18.106,343.774,53.814c106.052,34.739,201.511,84.636,283.726,148.306
		c83.425,64.607,149.128,140.219,195.286,224.733C1767.367,635.635,1792,730.339,1792,828.165s-24.633,192.529-73.214,281.48
		c-46.158,84.515-111.861,160.126-195.286,224.733c-82.215,63.67-177.674,113.567-283.726,148.307
		C1130.76,1518.394,1015.098,1536.5,896,1536.5c-104.404,0-206.359-13.96-303.501-41.526l-292.2,159.353
		C290.663,1659.582,280.13,1662.141,269.677,1662.141z M896,247.83c-208.123,0-403.14,62.264-549.126,175.321
		C205.731,532.458,128,676.295,128,828.165c0,181.551,115.581,355.342,309.178,464.894c30.422,17.215,41.404,55.654,24.668,86.343
		L430,1437.797l124.592-67.947c15.219-8.3,33.156-10.071,49.706-4.907C696.923,1393.845,795.066,1408.5,896,1408.5
		c208.123,0,403.14-62.264,549.126-175.322C1586.269,1123.871,1664,980.035,1664,828.165s-77.731-295.707-218.874-405.014
		C1299.14,310.094,1104.123,247.83,896,247.83z"/>
</g>
<g>
	<circle cx="896" cy="828.165" r="100"/>
	<circle cx="566" cy="828.165" r="100"/>
	<circle cx="1226" cy="828.165" r="100"/>
</g>
</svg>
