<?xml version="1.0" standalone="no"?>
<!DOCTYPE svg PUBLIC "-//W3C//DTD SVG 1.1//EN" "http://www.w3.org/Graphics/SVG/1.1/DTD/svg11.dtd" >
<svg xmlns="http://www.w3.org/2000/svg" xmlns:xlink="http://www.w3.org/1999/xlink" version="1.1">
<metadata>
Created by FontForge 20170910 at Tue Sep  4 04:11:15 2018
 By Jimmy Wärting
Copyright (c) 2018 by Letterhend Studio. All rights reserved.
</metadata>
<defs>
<font id="FortCollinsScriptDEMO" horiz-adv-x="330" >
  <font-face 
    font-family="Fort Collins Script DEMO"
    font-weight="400"
    font-stretch="normal"
    units-per-em="1000"
    panose-1="0 0 0 0 0 0 0 0 0 0"
    ascent="800"
    descent="-200"
    x-height="218"
    cap-height="655"
    bbox="-238 -439.615 780.857 733.158"
    underline-thickness="50"
    underline-position="-100"
    unicode-range="U+000D-007E"
  />
<missing-glyph 
 />
    <glyph glyph-name=".notdef" 
 />
    <glyph glyph-name="nonmarkingreturn" unicode="&#xd;" 
 />
    <glyph glyph-name="space" unicode=" " 
 />
    <glyph glyph-name="j" unicode="j" horiz-adv-x="230" 
d="M-3 51q2 25 3.5 48.5t1.5 47.5q0 26 -1.5 53t-3.5 53q-1 14 -2 28.5t-3 28.5q0 13 7 19q8 8 18 5t12 -14l4 -36l4 -36q5 -40 4 -80t-1 -81q6 1 10 4l8 6q45 35 83 62.5t83 47.5q8 3 18 1q14 -3 15 -15q2 -15 -9 -22q-2 -1 -3.5 -1.5t-3.5 -1.5q-28 -12 -53 -28t-48.5 -34
t-46.5 -36.5t-46 -34.5q-15 -10 -19 -29q-12 -60 -33.5 -116.5t-56.5 -107.5q-10 -14 -21 -26.5t-24 -23.5q-27 -26 -66 -23q-18 1 -30.5 15t-14.5 29q-2 33 12 63q14 29 32 55.5t38 50.5q27 32 57 61t62 55q3 2 6 5.5t8 7.5zM-19 -21l-6 -3q-33 -29 -63 -61t-55 -68
q-11 -17 -21 -35.5t-14 -39.5q-3 -12 5 -24q3 0 7 -1t8 1q7 3 14 6.5t12 8.5q9 8 17.5 17t16.5 19q19 25 32.5 52.5t24.5 56.5q6 17 11.5 34t10.5 37zM72 517q25 -9 12 -29q-8 -12 -21 -25q-13 -14 -25.5 -27t-20.5 -30q-2 -3 -5 -5t-6 -5q-5 2 -8.5 3.5t-6.5 3.5
q-5 14 2 26q2 4 4.5 7.5t5.5 6.5l60 69q2 2 4.5 2.5t4.5 2.5z" />
    <glyph glyph-name="f" unicode="f" horiz-adv-x="126" 
d="M15 312q-15 -1 -29 -4l-28 -6t-27.5 -6t-27.5 -7q-2 5 -4 8t-4 5q1 15 14 20q7 3 13.5 4.5t14.5 3.5q21 5 42 10.5t44 10.5q1 7 5 16q10 39 19 78t19 77q4 14 9.5 26t11.5 25q6 11 15.5 20t22.5 14q9 3 17.5 2.5t16.5 -7.5v-19q-3 -1 -5.5 -2t-4.5 -1q-23 -1 -33 -24
q-5 -10 -9 -19.5t-7 -19.5q-9 -37 -17.5 -73.5t-17.5 -72.5q-1 -2 -0.5 -4t0.5 -5q25 -1 48 6t46 4q11 -11 11.5 -14.5t-7.5 -17.5l-52 -8t-52 -9q-7 -8 -7 -17t-2 -18q-5 -31 -9.5 -61.5t-9.5 -62.5q-4 -28 -6.5 -56t-5.5 -57q-3 -26 -6 -50.5t-5 -49.5l-2 -28l-2 -28
q-2 -26 -2.5 -51t-2.5 -51l-3 -90q0 -11 1 -21.5t2 -21.5q2 -26 -20 -28q-15 0 -19 12q-5 12 -5 22l3 132q1 17 1.5 34t2.5 34q3 39 5.5 78t7.5 78q5 48 11.5 94.5t13.5 93.5q4 24 7.5 48t8.5 48q0 1 -0.5 2.5t-0.5 3.5z" />
    <glyph glyph-name="w" unicode="w" horiz-adv-x="471" 
d="M256 135q-13 23 -17.5 47.5t-4.5 49.5q1 23 5 45t13 44q5 10 9.5 19.5t10.5 19.5q5 11 19 21q14 11 28.5 7.5t22.5 -20.5q5 -12 5 -24q2 -23 -1 -44.5t-9 -43.5q-14 -58 -37 -108l-3 -9q13 -15 33 -17q19 -2 38 6t36.5 20.5t33 27t27.5 25.5q7 7 10 8t14 -1
q10 -13 -1 -27l-4 -4q-20 -17 -43.5 -36.5t-48.5 -33t-50.5 -18t-49.5 7.5q-3 2 -6 3.5l-7 3.5q-7 -8 -13 -19q-19 -29 -47 -54q-13 -11 -27 -17t-31 -5q-26 0 -43 23q-8 12 -11.5 25t-5.5 27q-1 3 -1.5 6t-1.5 8q-4 -5 -6.5 -9t-5.5 -8q-8 -9 -14.5 -18t-14.5 -17
q-6 -8 -15 -12q-15 -9 -28 -5t-20 21q-10 29 -7 62q0 7 1 17t2.5 20.5t3 20.5t2.5 17q2 8 3.5 16t9.5 15h8t8 -1q5 -9 4 -17t-3 -16q-5 -23 -9 -56t2 -57l2 -6l2 -6q8 2 12 6t8 9q19 23 33 47.5t28 49.5q2 3 4.5 7t5.5 7q7 10 18 5q11 -3 9 -15q-2 -23 -6 -45q-6 -37 5 -68
q12 -29 39 -16q8 4 15.5 9.5t13.5 11.5q15 14 26.5 31t21.5 37zM310 348q-12 -9 -21 -28t-14 -43t-4.5 -49t6.5 -45q9 15 17 39t13 48.5t6 46t-3 31.5z" />
    <glyph glyph-name="t" unicode="t" horiz-adv-x="142" 
d="M58 376h13q23 1 44.5 2t43.5 1q29 -2 51 -14q5 -3 9.5 -7.5t6.5 -12.5q-2 -3 -5 -6.5t-6 -7.5q-9 2 -12 4q-24 12 -48.5 13t-50.5 -1q-12 -1 -24.5 -1t-26.5 -1q-2 -6 -3 -11.5t-2 -10.5q-4 -33 -7.5 -65.5t-7.5 -64.5q-2 -23 -4 -45l-4 -44q-3 -34 -5.5 -67t-4.5 -66
q-1 -14 0 -27l2 -26q1 -18 1.5 -35.5t2.5 -35.5q1 -16 -5 -21t-23 -2q-11 10 -13 26q-1 11 -2 22.5t-1 23.5q-1 30 0 61q1 26 2.5 51t3.5 51q2 23 4.5 45t4.5 44q2 20 5 39.5t5 39.5l9 72q1 11 2 21t3 21q-5 1 -12 1q-48 -5 -94.5 -10t-92.5 -16q-8 -2 -15 -5t-15 -5
q-6 -2 -11.5 -3t-12.5 4q0 4 -0.5 8t-0.5 9q6 3 12 6.5t12 5.5q21 5 42 10.5t43 9.5q29 5 58.5 8t58.5 7q8 1 16 1t17 1q2 11 4 20l4 18q4 18 7 36l6 36q2 8 4 12q4 12 16 10q10 -1 12 -13v-10.5t-1 -10.5q-4 -22 -7.5 -43.5t-7.5 -44.5v-7z" />
    <glyph glyph-name="n" unicode="n" horiz-adv-x="394" 
d="M0 210q11 -2 14.5 -7.5t3.5 -14.5q0 -4 0.5 -7.5t-0.5 -7.5q-4 -17 -2 -33t3 -33q1 -13 4 -21.5t10 -17.5q7 2 11 7l8 10q11 16 20.5 32t20.5 32q20 32 40.5 61.5t46.5 56.5q9 11 20 20q17 12 31.5 7.5t20.5 -23.5q5 -17 6.5 -35.5t-0.5 -35.5q-1 -7 -3 -23t-3 -34
t-0.5 -34.5t5 -26t13.5 -8.5t25 20q23 29 45.5 55.5t47.5 51.5q11 9 21 7q11 -2 11.5 -10t-4.5 -18q-2 -4 -4 -6q-10 -12 -18 -21.5t-15.5 -18.5t-16 -18.5t-18.5 -21.5q-8 -10 -22.5 -27t-32 -29.5t-34.5 -15.5t-29 15q-18 27 -17.5 60t4.5 64q0 3 1.5 20t1 34t-3.5 26.5
t-11 -3.5q-16 -20 -29 -38t-27 -38t-27 -41.5t-27 -41.5q-6 -9 -13 -17.5t-15 -16.5q-9 -9 -21 -12q-16 -3 -25.5 1t-18.5 20q-6 13 -9 29q-4 18 -5.5 36.5t0.5 37.5q1 8 1 15v15q1 8 4 14t11 9z" />
    <glyph glyph-name="u" unicode="u" horiz-adv-x="375" 
d="M127 146q10 13 19 26t18 27q2 4 4 6q8 10 21 5q11 -3 11 -16q-1 -5 -1 -9t-2 -9q-4 -19 -9 -37t-4 -38q1 -8 3 -15.5t10 -15.5q5 1 10.5 1t10.5 2q16 5 30.5 13.5t26.5 21.5q18 19 40 42t40 41q2 3 5 6.5t7 5.5q8 7 13 6t13 -12q-1 -8 -5 -15t-9 -13q-17 -17 -37.5 -39.5
t-37.5 -39.5q-36 -39 -88 -54q-17 -5 -34 2t-25 24q-6 14 -9 33q-1 5 -1 18q-8 -7 -12 -12q-15 -20 -32.5 -38.5t-37.5 -33.5q-17 -12 -33 -13q-25 0 -38 22q-8 14 -11 28.5t-2 29.5q2 26 5 50.5t9 49.5q2 9 6 16q6 9 17 6q10 -3 10 -13q0 -4 0.5 -7.5t-0.5 -7.5
q-8 -20 -10 -40l-4 -40q-3 -33 3 -45.5t16.5 -11t24 13t27 26.5t25 30t17.5 23z" />
    <glyph glyph-name="h" unicode="h" horiz-adv-x="286" 
d="M146 214q-14 -8 -23.5 -19t-18.5 -22q-48 -63 -77 -139q-2 -5 -4 -9.5t-6 -8.5q-7 -9 -15 -7.5t-13 12.5q-3 7 -3 18q1 14 1.5 27.5t1.5 27.5q2 23 2.5 45t2.5 45q3 33 7.5 66t9.5 65q9 54 19 106t21 105q1 5 2 9.5t3 9.5q5 13 18 11q13 -4 10 -18q-3 -16 -3.5 -31.5
t-8.5 -31.5q-5 -10 -6.5 -22t-3.5 -24q-6 -33 -11.5 -66t-10.5 -67q-5 -29 -7.5 -57.5t-5.5 -57.5q-2 -18 -3 -36t-1 -37q4 6 7.5 12.5t7.5 11.5q13 20 25.5 38.5t26.5 36.5q6 9 14.5 16.5t16.5 14.5q21 15 37.5 9.5t22.5 -31.5q3 -15 3 -30.5t2 -31.5q0 -5 -2 -11
q-1 -51 -2 -101t-2 -101q0 -25 5 -53q1 -8 4 -15.5t6 -15.5q8 -16 -2 -24q-5 -5 -13 -4.5t-13 6.5q-5 4 -8 9.5t-5 10.5q-3 9 -5 18.5t-2 19.5q-1 24 -3.5 48t1.5 48q1 5 0.5 9t0.5 9q1 35 2 69.5t3 69.5q1 14 0.5 27.5t-1.5 27.5q-2 8 -4 13z" />
    <glyph glyph-name="d" unicode="d" horiz-adv-x="317" 
d="M175 226q-2 -4 -4.5 -7.5t-4.5 -6.5q-23 -39 -49.5 -74t-58.5 -66q-21 -20 -45 -36q-17 -12 -34 -16q-19 -5 -32.5 5.5t-15.5 30.5q-2 25 5 45q31 87 101 143q10 8 21 13.5t23 7.5q17 3 33.5 0.5t29.5 -19.5q7 9 8 12q13 26 24 51.5t17 53.5q4 20 7 39.5t6 39.5
q7 38 15.5 75t19.5 75q3 10 9 21q15 29 38 3q3 -15 1 -30t-6 -30q-10 -42 -20.5 -82t-21.5 -82q-5 -21 -8 -42t-5 -42q-3 -30 -5.5 -60t-4.5 -60q-1 -9 -1 -18.5v-19.5q0 -25 -0.5 -49.5t0.5 -49.5q4 -99 12 -198q2 -25 7 -45q1 -5 3.5 -10t5.5 -10q7 -10 6.5 -19.5
t-8.5 -16.5t-19.5 -5.5t-17.5 10.5q-5 8 -8.5 17t-5.5 18q-3 11 -4.5 22.5t-3.5 22.5q-2 13 -2.5 25.5t-1.5 25.5q-5 76 -5.5 151t1.5 151q0 9 0.5 17.5t1.5 17.5q-1 1 -3 1zM-31 52q11 2 19.5 7t16.5 12q34 26 61 58t50 67q3 5 6 9.5t5 8.5q-5 14 -8.5 17t-17.5 8
q-37 -6 -64 -34q-16 -17 -31 -37q-15 -21 -27 -44.5t-17 -49.5q-1 -5 -0.5 -11t7.5 -11z" />
    <glyph glyph-name="z" unicode="z" horiz-adv-x="382" 
d="M99 11l-5.5 16.5t-5.5 15.5q-2 5 -4.5 9t-5.5 9q-14 24 -14 48t13 47q13 24 26.5 48t27.5 48q17 27 23 56q-10 14 -27 9q-17 -3 -33 -10.5t-31 -17.5q-2 -5 -4 -9t-4 -9q-7 -1 -14 -1t-13 -1q-11 10 -11 16.5t9 14.5q17 15 36.5 25.5t40.5 18.5q12 5 24 5.5t23 -1.5
q19 -2 29 -16.5t7 -32.5q-3 -19 -10.5 -35.5t-17.5 -33.5q-9 -14 -18 -29t-17 -30q-6 -11 -10.5 -21.5t-9.5 -21.5q-9 -21 1 -40l12 -24t13 -25q3 2 6 3.5t5 3.5q22 16 48 36t53 39.5t54 38t51 32.5q11 8 22 12q4 3 14 5q22 1 25.5 -13.5t-12.5 -24.5q-65 -38 -129 -80.5
t-122 -90.5q-4 -4 -6 -5q0 -8 -0.5 -15t-1.5 -14q-3 -35 -18 -63t-37 -54q-45 -56 -106 -82q-6 -2 -12.5 -4t-13.5 -4q-19 -4 -30.5 7t-7.5 30q3 19 15 36q11 15 21.5 29t22.5 27q28 28 56 55l56 54q4 4 8 7t9 7zM-48 -200q25 6 51 25t46.5 42.5t33.5 47.5t12 39
q-14 -9 -36 -29t-44 -43.5t-39.5 -46t-23.5 -35.5z" />
    <glyph glyph-name="s" unicode="s" horiz-adv-x="277" 
d="M82 268q-8 -5 -13 -2t-10 7q-15 -11 -23 -29.5t-3 -35.5q2 -9 5 -18t8 -17q11 -20 22 -40.5t23 -41.5q8 7 16 13.5t16 13.5q18 15 32.5 26.5t29.5 21t31 18t37 18.5q5 3 11.5 4.5t12.5 2.5q7 2 13 -1t7 -12q1 -7 -3 -11.5t-10.5 -8t-13.5 -6t-13 -5.5q-17 -9 -30 -16
t-24.5 -15t-23.5 -17t-27 -21q-9 -7 -18 -14.5t-17 -15.5q-6 -6 -12 -14q4 -20 8 -38t7 -37q11 -75 -22 -142q-4 -8 -7 -12q-8 -14 -20.5 -21t-26.5 -7t-27.5 7.5t-22.5 22.5q-11 18 -12 39q-2 36 9 68t28 62q10 17 21.5 33.5t22.5 33.5q-10 29 -26 59q-7 12 -13.5 23.5
t-11.5 23.5q-29 62 9 113q5 7 11 12t13 10q8 5 15.5 3.5t13.5 -6.5q16 -13 8 -31zM43 -171q12 2 17.5 10.5t9.5 17.5q27 62 14 128q-2 7 -3.5 14t-3.5 15q-6 -5 -7 -6q-17 -23 -29.5 -48t-19.5 -52q-5 -20 -5 -36q1 -14 6 -26t21 -17z" />
    <glyph glyph-name="k" unicode="k" horiz-adv-x="254" 
d="M59 624q4 -1 7 -1t7 -1q5 -7 4.5 -13.5t-0.5 -13.5q-4 -38 -8 -74.5t-8 -74.5l-8 -70l-8 -70l-12 -129q-1 -3 1 -13q5 11 13 23q15 29 33 56t39 51q12 11 24.5 21t26.5 18l21 9q19 5 33.5 -4t16.5 -28q2 -15 -0.5 -28t-9.5 -26q-10 -17 -22.5 -31t-26.5 -27
q-20 -18 -41 -33.5t-46 -26.5q-3 -2 -5 -5q2 -13 7 -23.5t10 -21.5q18 -35 36.5 -68t35.5 -67q1 -2 2 -3t2 -3q14 -25 -13 -35q-17 3 -24 19q-24 42 -46.5 83t-40.5 86q-4 4 -6 9q-23 -49 -29 -99q1 -8 0.5 -15t-1.5 -15q-2 -10 -5.5 -16.5t-14.5 -8.5q-12 4 -16 8.5
t-3 18.5t2 26t2 26q2 18 3 36.5t3 36.5q2 20 3 39t3 38q1 26 3 50.5t5 50.5q2 28 6 55.5t7 55.5q3 29 6 59t7 60q2 22 5 43l6 42q0 6 3 12.5t11 11.5zM94 183q4 2 8 3t7 3l26 22t26 23q9 8 17 18t15 21q12 10 10 29q-11 -2 -19 -7.5t-16 -11.5q-23 -19 -40 -42.5t-32 -48.5
q-1 -2 -1 -4.5t-1 -4.5q0 -1 -2 -3q1 1 1 1.5t1 1.5z" />
    <glyph glyph-name="r" unicode="r" horiz-adv-x="164" 
d="M35 244q-1 -23 -5.5 -45t-5.5 -48q7 7 9 10q20 28 45 50.5t53 41.5q7 4 14.5 8t17.5 3q4 0 8 -0.5t6 -3.5q10 -6 9 -17t-12 -16q-63 -31 -99.5 -80.5t-54.5 -115.5l-6 -27q-6 -18 -23 -15q-7 1 -12 6t-4 14q1 12 1.5 24t2.5 25q2 15 3.5 30t3.5 30q3 28 7 55.5t7 54.5
q1 4 2 7.5t2 6.5q11 20 31 2z" />
    <glyph glyph-name="x" unicode="x" horiz-adv-x="270" 
d="M31 107q-8 17 -14 32.5t-13 30.5q-2 5 -3 8.5t-3 8.5q-6 13 5 26q13 2 18.5 0t10.5 -13q4 -7 6.5 -14t5.5 -14q2 -5 4.5 -10.5t5.5 -12.5q3 4 5.5 6.5t4.5 5.5q21 32 42 65l42 66q3 6 8 11q9 11 22 5q9 -13 -1 -30l-22 -36l-22 -36q-14 -23 -29 -46.5t-29 -47.5
q7 -19 25 -30q8 -5 15.5 -7t17.5 2q13 5 23.5 12t20.5 16q22 20 43.5 44.5t39.5 47.5q8 10 11.5 11t17.5 -1q8 -11 8 -17t-8 -17q-8 -10 -17.5 -21.5t-17.5 -20.5q-15 -17 -29.5 -33.5t-33.5 -30.5q-9 -7 -18 -12.5t-19 -10.5q-46 -21 -86 14l-3.5 3.5l-3.5 3.5q-3 2 -8 7
q-2 -3 -4 -5.5t-4 -5.5q-16 -29 -31.5 -57t-27.5 -59q-2 -7 -9 -11q-8 -4 -15.5 0.5t-7.5 13.5q0 14 4 23q13 26 26 50.5t27 50.5q5 9 10 17.5t10 17.5z" />
    <glyph glyph-name="e" unicode="e" horiz-adv-x="269" 
d="M-31 133q8 27 19 53t28 49q30 42 77 63q10 4 19.5 7t20.5 -1q23 -7 26 -32q2 -20 -6.5 -36t-21.5 -30q-16 -17 -34 -31t-37 -27q-12 -8 -23.5 -16t-23.5 -16q-18 -10 -15 -30q2 -14 6 -24q7 -16 24 -13t33 9.5t31 14.5q16 9 26.5 15t19.5 12t18.5 13.5t23.5 19.5l76 64
q4 6 12 9q14 9 24 -2q4 -5 3.5 -12t-5.5 -13q-5 -5 -10.5 -9.5t-10.5 -9.5q-14 -12 -25 -21t-21 -17.5t-21 -17.5t-26 -20q-28 -22 -58 -39.5t-65 -27.5q-21 -5 -43 -3q-12 0 -20.5 6.5t-13.5 17.5q-7 16 -11 27t-5 20.5t1.5 20.5t7.5 27zM129 272q-18 -1 -37.5 -13
t-36.5 -30t-27.5 -38t-10.5 -36q26 17 49.5 34t43.5 40q9 9 16 25q2 4 2 8.5t1 9.5z" />
    <glyph glyph-name="a" unicode="a" horiz-adv-x="231" 
d="M113 171q-5 -9 -9 -18.5t-9 -19.5q-14 -23 -26 -46.5t-26 -45.5q-7 -11 -15.5 -21t-17.5 -18t-22 -12q-11 -4 -20.5 -0.5t-14.5 14.5q-11 20 -9 43q3 29 10.5 54.5t18.5 50.5q11 27 25 52.5t32 48.5q16 18 33 33q11 10 24 13t27 1q4 -1 7 -1t6 -2q7 -4 13 -7.5t14 -5.5
q7 -2 10 -7.5t2 -11.5q0 -11 0.5 -20.5t-1.5 -18.5q-5 -41 -9 -80.5t-5 -81.5q0 -14 0.5 -17.5t0.5 -5t0.5 -5t0.5 -17.5q0 -12 1.5 -24.5t6.5 -24.5q5 -8 1.5 -15t-9.5 -12t-14 -4t-15 6q-8 6 -10 14t-3 16q-2 18 -1.5 36t-1.5 38v12q1 21 1 31.5t1 19t2 18.5t4 30v10
q-1 0 -1.5 0.5t-1.5 0.5zM-19 20q5 4 8.5 6t5.5 7q10 11 19 22.5t16 25.5q18 35 35 70l34 70q6 11 11.5 22.5t11.5 23.5q-5 2 -7 3l-4 2q-7 1 -12.5 -0.5t-11.5 -3.5q-11 -8 -19.5 -16.5t-16.5 -18.5q-17 -24 -30 -50t-24 -54q-15 -37 -21 -74q-2 -8 -1.5 -16.5t6.5 -18.5z
" />
    <glyph glyph-name="p" unicode="p" horiz-adv-x="423" 
d="M262 248q-12 -4 -19.5 -9.5t-13.5 -12.5q-20 -23 -37.5 -47.5t-32.5 -50.5q-86 -151 -125 -320q-6 -26 -10.5 -52.5t-6.5 -53.5l-3 -84v-13q-3 -15 -17 -15q-16 0 -16 15q-3 28 -3 58q0 17 1 33t1 32q1 37 0.5 73t0.5 72q1 35 2 69l2 68q1 20 1.5 38.5t1.5 38.5
q1 9 1.5 23t1.5 29t1.5 29t1.5 23q0 5 1.5 9.5t3.5 8.5q14 2 18.5 -1t4.5 -14v-18.5t-0.5 -24t-1 -24t-0.5 -18.5q0 -11 -1 -21t-1 -21q-2 -40 -2.5 -79t-1.5 -79q0 -5 0.5 -9.5t2.5 -9.5q5 17 10 33t11 33q21 58 47 113t59 108q16 26 33.5 49t40.5 42q13 10 28 16
q17 5 31.5 -1.5t20.5 -21.5q4 -12 6 -24q3 -34 -5 -72q-1 -2 -1 -4.5t-1 -6.5q7 0 10 1q12 2 23.5 3.5t23.5 4.5q14 3 26.5 1.5t26.5 -3.5q32 -4 25 -40q-12 -12 -25 -5q-13 6 -26.5 6t-26.5 -2q-16 -3 -31.5 -7.5t-30.5 -8.5q-14 -4 -22 -20q-19 -43 -46 -74
q-14 -15 -29.5 -25.5t-36.5 -14.5q-20 -3 -33 7.5t-12 31.5q1 16 9 30q10 17 23.5 30t29.5 24q27 17 57 32q16 8 20 24q4 17 7.5 34t5.5 35q2 6 0 13.5t-3 16.5zM205 59q-33 -17 -41 -42q14 8 25 17.5t16 24.5l1 1q0 -1 -1 -1z" />
    <glyph glyph-name="c" unicode="c" horiz-adv-x="197" 
d="M149 264q-12 -8 -23 0q-10 7 -19 5.5t-19 -6.5q-14 -7 -24 -18t-18 -23q-15 -24 -24.5 -50.5t-14.5 -53.5q-3 -12 -4.5 -17.5t-2 -10t0.5 -10t3 -17.5q5 -23 15 -44q12 -22 38 -10q23 12 38.5 30.5t26.5 40.5q14 25 30 52.5t29 51.5q4 13 9 18q10 12 22 5q10 -4 10 -17
q0 -6 -3 -12q-16 -38 -37.5 -78t-47.5 -73q-11 -14 -23 -25.5t-27 -20.5q-8 -5 -16.5 -7.5t-18.5 -4.5q-30 -6 -52 18q-15 18 -19 37q-8 25 -10.5 43t-1 35t7.5 35l14 42q8 22 19.5 42.5t27.5 39.5q11 13 24 22t30 13q24 9 48 -4q7 -5 10.5 -11t1.5 -17z" />
    <glyph glyph-name="v" unicode="v" horiz-adv-x="302" 
d="M28 34q11 1 18 6t12 11q14 15 26 30l24 30q5 6 9 13t8 12q-11 25 -18 48q-5 17 -4 35t4 35q5 25 13.5 48.5t22.5 45.5q4 6 9.5 11.5l10.5 10.5q20 19 45 12q11 -6 15 -15.5t5 -20.5q1 -14 -1 -27.5t-5 -27.5q-7 -33 -19 -64.5t-27 -61.5l-9 -18q11 -10 22.5 -9.5
t22.5 3.5q10 3 21.5 9.5t22.5 15t20.5 17.5t17.5 17t12 9t17 -4q10 -17 -4 -29q-12 -13 -27 -26.5t-32 -24t-35.5 -17.5t-37.5 -6q-10 0 -20 3.5t-21 5.5q-2 -2 -4.5 -5t-5.5 -7q-26 -40 -60 -71q-10 -9 -20 -16t-23 -9q-18 1 -27 11t-13 25q-2 8 -3 16t-1 16
q-2 35 0.5 68.5t10.5 67.5q3 11 6.5 13.5t16.5 0.5q5 -8 4 -15.5t-3 -15.5q-4 -24 -6.5 -48t-2.5 -48q0 -11 2 -22l4 -22q1 -7 7 -16zM148 175q5 11 9 20.5t8 17.5q12 28 20.5 56.5t11.5 58.5q2 13 -5 21q-15 -9 -26.5 -29.5t-18 -45.5t-7 -51.5t7.5 -47.5z" />
    <glyph glyph-name="q" unicode="q" horiz-adv-x="252" 
d="M122 165q-9 -14 -17.5 -26.5t-17.5 -25.5l-24 -34t-28 -31q-8 -7 -16.5 -12.5t-19.5 -6.5q-25 -4 -36 22q-4 11 -3.5 21.5t2.5 21.5q12 88 65 154q15 18 36 25q29 10 52 -9q3 -2 5.5 -5t7.5 -8q4 12 8 21.5t8 18.5q2 5 5 9.5t10 5.5q21 6 26 -15q1 -4 0.5 -8t-0.5 -8
q-7 -63 -14 -125t-13 -125q-4 -38 -4.5 -75t-2.5 -75q-1 -31 -1.5 -62t-0.5 -62q-1 -14 -0.5 -28.5t1.5 -28.5q1 -26 2 -50.5t3 -50.5q0 -5 1 -8q-2 -21 -18 -24q-9 -2 -17 2.5t-10 14.5q-2 11 -4.5 22.5t-2.5 22.5q-2 22 -2 43v43q1 38 0.5 76t0.5 76q2 48 5 96.5t6 96.5
q2 26 5.5 51.5t5.5 51.5q0 4 1 7q-2 0 -2.5 0.5t-1.5 0.5zM109 222q-1 2 -1.5 2.5t-1.5 2.5q-23 30 -50 3q-3 -5 -7 -8.5t-6 -8.5q-20 -29 -31.5 -61t-16.5 -66q-1 -5 -0.5 -9.5t1.5 -9.5q10 5 26 23t33 41t31.5 47.5t22.5 43.5z" />
    <glyph glyph-name="g" unicode="g" horiz-adv-x="396" 
d="M152 242q17 14 27 33t28 34q5 -3 9 -5.5t8 -4.5q5 -15 1.5 -28t-5.5 -26q-3 -24 -6.5 -48t-7.5 -48l-6 -39q-1 -5 -1 -10.5v-12.5q42 30 78 62t81 53q20 9 41 6q13 -1 20 -13q9 -19 -12 -27q-24 -4 -53.5 -22t-58.5 -40.5t-54.5 -45.5t-42.5 -38q-8 -6 -12 -14t-6 -18
q-14 -59 -33 -115.5t-47 -110.5q-11 -21 -23.5 -41.5t-29.5 -38.5q-15 -16 -34 -28q-14 -8 -26.5 -7t-22.5 8t-16 17.5t-7 21.5q-3 31 5 57q10 29 24 55t31 51q30 45 64 86.5t72 79.5q14 14 17 32q-1 14 2.5 40.5t6.5 51t4 40.5t-5 10q-28 -32 -57.5 -60.5t-63.5 -54.5
q-12 -9 -25 -16t-28 -9q-14 -2 -25.5 7t-13.5 23q-1 7 -0.5 13.5t1.5 13.5q7 27 20.5 50t30.5 45q14 17 28.5 30.5t34.5 24.5q11 5 23 8.5t26 -0.5q17 -4 25.5 -9.5t13.5 -22.5zM130 234q-4 5 -9.5 6t-11.5 2q-17 0 -30 -10q-10 -8 -19 -15.5t-17 -15.5q-38 -40 -56 -90
q3 -11 15 -8.5t27.5 14t33 28t32 34t24.5 32.5t11 23zM127 -57q-1 0 -1.5 0.5t-1.5 0.5q-2 -2 -4.5 -4t-4.5 -4q-17 -21 -33 -41.5t-32 -41.5q-17 -23 -31.5 -46.5t-25.5 -49.5q-3 -10 -6 -19.5t-5 -19.5q-2 -7 -1 -14t9 -12q3 2 6.5 3.5t5.5 3.5l16 16t14 17q25 34 42 71
t31 76q6 16 11.5 31.5t10.5 32.5z" />
    <glyph glyph-name="o" unicode="o" horiz-adv-x="362" 
d="M176 129q23 -3 45 2.5t43 16t40.5 24t37.5 25.5q16 12 26 11.5t13.5 -6.5t2 -15t-8.5 -13q-25 -18 -48 -34t-46.5 -28t-49 -19t-54.5 -7q-4 1 -7.5 0.5t-8.5 -0.5q-3 -5 -6 -10.5t-6 -11.5q-20 -42 -59 -76q-21 -19 -46 -25q-43 -10 -65 27q-11 17 -14 35t-2 37
q7 103 61 198q8 14 18 26.5t23 23.5q15 12 33 12q5 0 10 1t10 3q28 10 48 -11q13 -14 17.5 -31.5t5.5 -35.5q2 -28 -0.5 -54.5t-10.5 -53.5q-1 -2 -1 -5t-1 -6zM42 218h-4q-3 -7 -6.5 -14t-5.5 -14q-11 -28 -18.5 -55.5t-10.5 -56.5q-3 -32 6 -60q3 -9 8.5 -15t16.5 -8
q10 2 19 5t17 11q7 6 13.5 12t11.5 13q11 14 20.5 29t15.5 32q-19 9 -35 19t-29 26q-13 17 -17 36t-2 40zM139 291l-7.5 -3t-4.5 -3q-16 -11 -25 -26.5t-16 -33.5q-5 -15 -2.5 -29t10.5 -26t20 -20t27 -10q11 38 14 75t-16 76z" />
    <glyph glyph-name="y" unicode="y" horiz-adv-x="408" 
d="M258 285q-19 -29 -37 -55t-35 -52q-16 -24 -32.5 -47.5t-36.5 -43.5q-11 -11 -22 -20.5t-22 -18.5q-6 -5 -12.5 -7.5t-13.5 -4.5q-29 -9 -47 16q-8 11 -11.5 24.5t-4.5 27.5q-2 32 3.5 64t16.5 63q2 5 3.5 9t4.5 8q8 13 19 8q9 -5 9.5 -18t-3.5 -28.5t-8.5 -31
t-4.5 -25.5q-1 -12 -1.5 -30.5t3 -32.5t13 -18.5t28.5 9.5t30.5 30t24.5 35q42 60 82 119.5t74 124.5q4 7 7 11t11 6q14 -5 17.5 -9.5t1.5 -18.5t-4.5 -26.5t-4.5 -25.5q-4 -28 -7 -55t-7 -55l-6 -45q-1 -6 -1 -12.5t-1 -14.5q5 2 8.5 3.5t6.5 3.5q22 13 42 23t43 23
q4 3 14 7q13 4 21 0.5t10.5 -10.5t-1.5 -15.5t-16 -13.5q-32 -17 -62 -33t-59 -39q-16 -10 -20 -30q-7 -41 -15.5 -80.5t-21.5 -78.5q-11 -35 -24.5 -67.5t-35.5 -61.5q-11 -14 -22.5 -26t-25.5 -23q-20 -15 -38.5 -15.5t-33 8.5t-24 25.5t-11.5 36.5q-4 30 3.5 58.5
t21.5 54.5q31 57 75 101q25 26 52 55t53 52q15 12 18 33q4 35 7.5 63.5t8.5 63.5q1 5 0.5 9.5t-0.5 12.5zM85 -244q4 2 7 2.5t6 2.5q6 3 11 8q23 19 38.5 42.5t26.5 50.5q16 37 27.5 80t20.5 82q1 5 1.5 10t1.5 11q-2 -1 -4 -1q-1 0 -1 -1q-26 -22 -50 -49.5t-44 -53.5
q-15 -19 -28.5 -38.5t-22.5 -41.5q-7 -15 -11.5 -30.5t-3.5 -32.5q0 -13 5.5 -23.5t19.5 -17.5z" />
    <glyph glyph-name="b" unicode="b" horiz-adv-x="273" 
d="M36 73q7 2 8.5 7t3.5 9q12 29 26.5 56t33.5 52q7 8 14 15t15 13q14 10 28 11.5t25 -3.5t18.5 -17t9.5 -29q1 -23 -5 -49q-27 -101 -120 -153q-9 -6 -18 -7q-5 -2 -9.5 -2h-9.5q-10 -28 -13 -60q-2 -17 -2.5 -35t-1.5 -35q0 -5 0.5 -9.5t-0.5 -9.5q-3 -17 -18 -19
q-16 -1 -23 14q-1 3 -2 7t-1 7q0 16 0.5 31t1.5 30q1 12 1 24t1 24q0 38 -0.5 75.5t0.5 75.5q1 65 1.5 128.5t2.5 128.5l3 225q1 20 1.5 40t2.5 40q0 14 13 24h15q8 -8 11 -16t-2 -19q-4 -8 -4 -20q-2 -118 -2.5 -235.5t-2.5 -235.5q0 -16 -0.5 -31.5t-1.5 -31.5v-20zM90 37
q68 49 83 128q1 6 1.5 13t-4.5 12q-35 -12 -79 -111q-4 -9 -7 -18t-7 -18q2 -2 3 -2.5l3 -1.5t3.5 -1t3.5 -1z" />
    <glyph glyph-name="A" unicode="A" horiz-adv-x="659" 
d="M285 -70q0 -10 -7 -20.5t-18 -17.5q-13 5 -17 9.5t-3 17.5q1 9 2 21t3 20q5 31 10.5 62.5t11.5 63.5q-4 -2 -3 -2l-5 -2l3 1q-44 -27 -87.5 -55.5t-81.5 -62.5q-10 -9 -23 -23.5t-25 -28.5q-14 -14 -11 -38l-10 -5l-5 -5l-16 8l-3 1q-5 17 -1.5 31t12.5 26q16 22 34 40.5
t40 36.5q40 32 85 62t93 57h-1q8 5 13 10.5t7 14.5q20 89 51.5 173.5t72.5 167.5h-1q9 19 21 39t25 41v-1q8 15 20 26q16 14 33.5 9t26.5 -22q4 -8 6 -19.5t3 -22.5q2 -24 3 -50t1 -50v-36t-2 -36q-1 -8 -1 -19.5v-19.5v-63q0 -2 -1 -1t1 -2q7 0 13 2t13 4q10 3 20.5 4.5
t23.5 -1.5q8 -17 5.5 -24.5t-17.5 -11.5h1l-19 -6l-22 -5l-18 -6v-9v-70.5t1 -70.5q0 -26 1 -50.5t3 -49.5l6 -122q0 -7 -1 -13t-3 -12q-5 -14 -20 -21q-16 -7 -25 5q-10 13 2 29l4 5v51q0 4 -0.5 7.5t-0.5 8.5q-1 4 -1 9v10l-6 180q0 23 -0.5 45t-1.5 44v7
q-15 -5 -26.5 -11t-22.5 -11l-12 -6q-17 -8 -32.5 -16t-32.5 -17l-62 -33q-11 -42 -19 -84t-16 -85zM497 567q-15 -12 -19 -22q-5 -11 -10 -20.5t-11 -20.5l-35 -68q-25 -53 -47 -110t-39 -111l-11 -44q-1 -4 -1.5 -4.5t-1.5 -5.5q45 23 88.5 46t88.5 45l3 27q0 13 0.5 26
t0.5 25q1 26 1.5 51.5t0.5 51.5q1 26 0 51.5t-3 51.5v-1q-1 6 -1.5 13t-2.5 14z" />
    <glyph glyph-name="S" unicode="S" horiz-adv-x="426" 
d="M433 217q12 -11 12 -17t-11 -18q-3 0 -6 -0.5t-7 -0.5q-14 -2 -26.5 -5t-24.5 -10q-36 -18 -66.5 -44t-59.5 -52q5 -16 9.5 -30t8.5 -28q15 -55 3 -104.5t-45 -94.5q-20 -27 -45 -48t-56 -35q-16 -7 -32.5 -9.5t-34.5 1.5q-29 6 -42.5 29.5t-8.5 51.5q4 20 11.5 38
t17.5 36q20 33 43 62.5t49 58.5q15 17 30.5 34t31.5 34l12 15q-6 13 -12 24q-17 28 -34.5 55.5t-34.5 56.5q-14 23 -24 47t-15 50q-12 63 9 124q10 27 23.5 52t33.5 46q20 23 44.5 38t55.5 20q20 3 35.5 -7t14.5 -34q0 -14 -3 -27q-1 -3 -3.5 -6t-4.5 -6q-11 2 -13 7.5
t-2 13.5v15t-5 14q-11 5 -25 0q-25 -7 -44 -21.5t-34 -34.5q-51 -64 -55 -145q-2 -35 12 -65q7 -17 14.5 -34t17.5 -33q18 -31 37 -61t39 -60q6 -1 9 3t6 7q23 20 46 38.5t49 35.5q23 14 47 21t53 2zM216 39q-6 -3 -7 -5q-32 -32 -62.5 -66t-57.5 -71q-13 -17 -24 -35.5
t-18 -38.5q-2 -7 -4 -13t-3 -13q-4 -20 8 -32t32 -7q16 3 35 13q80 44 108 128q13 35 10 70t-17 70z" />
    <glyph glyph-name="L" unicode="L" horiz-adv-x="325" 
d="M181 -123q6 1 10 1.5t8 1.5q56 13 111 25.5t111 24.5q20 5 40 8t40 1q13 0 23 -7q9 -9 9 -20q-1 -11 -8 -15.5t-17 1.5q-2 2 -4.5 4t-5.5 4q-11 -2 -21.5 -2.5t-21.5 -2.5q-60 -12 -119 -24.5t-119 -24.5q-12 -2 -22 -7t-18 -16q-6 2 -11 3t-11 3q-11 -4 -23.5 -7.5
t-25.5 -7.5q-12 -4 -24 -8.5t-25 -8.5q-12 -3 -23 -10.5t-25 -9.5q-6 7 -9 12q1 3 1 7q4 9 12 13.5t16 8.5q21 8 42 15.5t42 15.5q8 3 15.5 5t15.5 5v16q-1 31 1.5 61.5t5.5 61.5q2 17 2.5 32.5t2.5 32.5l6 66q2 13 2.5 25.5t2.5 25.5q1 20 2 38.5t2 37.5q2 23 3.5 46.5
t3.5 46.5v13.5t1 13.5v59t1 59q0 47 3 94q0 11 3.5 14.5t15.5 5.5q10 -6 10 -21v-50v-80t-1 -80q-1 -39 -3 -78l-4 -78l-12 -165q-3 -41 -5.5 -81t-5.5 -81v-23z" />
    <glyph glyph-name="C" unicode="C" horiz-adv-x="385" 
d="M278 550q-3 2 -6 4.5t-5 6.5q-9 11 -17 15t-22 -1q-19 -6 -34 -17q-24 -18 -42 -41t-34 -49q-29 -48 -47 -99.5t-28 -106.5q-5 -21 -7.5 -42.5t-2.5 -42.5q-2 -38 4 -75.5t25 -72.5q14 -26 38 -44q42 -28 89 -10q21 8 37 22.5t30 31.5q10 13 25.5 34t31 43.5t30.5 43.5
t25 34l12 15q8 10 14 10t17 -8q6 -12 -4 -23q-13 -18 -31 -43.5t-37 -52.5t-37.5 -52t-33.5 -41q-13 -14 -27.5 -25t-31.5 -19q-41 -17 -82 -8.5t-71 42.5q-22 25 -34 54t-17 61q-5 30 -5 60.5t3 61.5q4 41 13.5 80.5t23.5 77.5t31 72.5t40 66.5q15 20 32 38.5t38 33.5
t49 20q34 5 53 -20q5 -7 7 -19q2 -5 -0.5 -7.5t-11.5 -8.5z" />
    <glyph glyph-name="D" unicode="D" horiz-adv-x="491" 
d="M102 -17q2 14 3 27t2 25q2 29 2.5 58t2.5 58q1 23 2.5 46.5t3.5 46.5q2 17 2.5 33.5t1.5 33.5q2 18 2.5 36.5t2.5 37.5q2 26 5 51t5 51q2 14 3 29t3 32q-21 -4 -39 -9.5t-32 -19.5q-14 -3 -17 10q3 17 20 24q13 5 25.5 9t26.5 9q4 2 8 2.5t7 1.5q5 5 6 11.5t1.5 13.5
t2 13t7.5 11h14q6 -5 7 -11t0.5 -12t-1 -11.5t1.5 -11.5q4 -2 7 -2q39 0 73 -14.5t66 -36.5q46 -33 69.5 -78t31.5 -100q7 -58 -9 -113q-5 -20 -14 -37q-22 -42 -51.5 -77t-65.5 -65q-20 -17 -41 -34t-44 -30q-15 -8 -30.5 -16t-32.5 -17q-1 -5 -1.5 -9.5t-0.5 -9.5
q-1 -8 -1 -16.5t-1 -16.5q0 -13 -4 -22q-4 -13 -20 -10q-12 1 -13 16q0 9 0.5 18t0.5 19v6t-1 8q-11 -4 -21 -8t-21 -6q-10 -2 -19 -4t-19 -3q-17 -2 -19 14q-1 15 16 20t34.5 10.5t34.5 11.5q5 2 8.5 3.5t8.5 3.5zM175 549q-2 -26 -4 -50.5t-4 -49.5q-3 -29 -6 -58.5
t-5 -58.5q-2 -32 -3.5 -64t-3.5 -64t-2.5 -64.5t-2.5 -64.5q0 -8 -1 -15.5t-1 -15.5q0 -10 -1 -20.5t3 -22.5q9 5 17 8.5t16 8.5q27 15 51.5 35t48.5 40q62 51 101 124q4 8 7 15.5t5 15.5q7 22 8.5 44t-0.5 45q-3 45 -21 84q-20 45 -54.5 73t-79.5 45q-16 6 -32 9t-36 1z
" />
    <glyph glyph-name="X" unicode="X" horiz-adv-x="456" 
d="M227 277q13 -31 25 -61.5t26 -60.5q19 -41 38.5 -80.5t39.5 -80.5q5 -9 11 -17.5t16 -13.5q0 -4 2 -10q1 -6 -1 -11.5t-8 -7.5q-16 -7 -25 3q-15 15 -23 30q-10 19 -19.5 37.5t-18.5 37.5q-20 45 -38.5 88t-38.5 88l-4 8t-5 9q-2 -5 -4 -7.5t-4 -5.5q-29 -57 -59 -114
t-59 -114q-11 -21 -19.5 -43t-17.5 -43q-2 -4 -3 -7.5t-3 -6.5q-11 -25 -33 -6q-3 7 -1.5 13t3.5 13q14 42 33 82t40 79q26 48 52 95.5t52 95.5q8 16 3 32q-36 108 -57 215q-3 18 -5 36l-4 36v12q2 14 15 14q11 0 14 -13q2 -7 2.5 -14t1.5 -14q3 -32 9.5 -63t14.5 -62
q8 -28 16 -55t16 -55q1 -2 2 -4.5l3 -7.5q3 6 6 10t5 8q46 81 99.5 155t111.5 146q5 8 11 15.5t12 14.5q5 5 10.5 10t10.5 10q5 -3 8.5 -4.5t6.5 -3.5q3 -10 0 -16t-8 -11q-42 -52 -82 -104.5t-76 -108.5q-23 -35 -44.5 -71t-43.5 -72q-3 -5 -5.5 -11t-6.5 -13z" />
    <glyph glyph-name="G" unicode="G" horiz-adv-x="388" 
d="M233 250q-27 -20 -51.5 -41t-44.5 -46q-29 -3 -23 21q2 7 6 13t9 11q25 26 52.5 49t56.5 44q23 17 46.5 32t46.5 31q5 2 9.5 4.5t9.5 4.5q7 2 13 -0.5t8 -7.5q3 -5 2 -11.5t-5 -11.5q-6 -5 -13 -8q-19 -13 -37.5 -25t-37.5 -24q-4 -3 -7.5 -6t-6.5 -5q0 -3 1 -3
q21 -13 28 -32.5t8 -41.5q3 -62 -10.5 -119t-45.5 -110q-19 -32 -47 -50q-23 -16 -46 -17.5t-48 8.5q-23 9 -39.5 25t-29.5 36q-31 54 -34 112q-1 12 -2.5 24.5t-0.5 24.5q5 75 25 142q20 66 47 127.5t65 118.5q17 26 36 50t42 46q8 8 18 14.5t20 12.5q5 4 11.5 5t12.5 2
q23 1 34 -12t6 -36q-17 -8 -22 5q-2 5 -4 9.5t-8 6.5q-8 0 -15.5 -4t-14.5 -9q-22 -17 -39.5 -37t-33.5 -43q-53 -75 -87 -157.5t-52 -173.5q-8 -40 -8 -79.5t11 -79.5q7 -24 18.5 -45.5t31.5 -38.5q11 -9 23 -14.5t27 -6.5q25 0 44 16q12 11 22 23t18 27q15 29 25.5 60
t13.5 64q3 34 3 69q-1 24 -7.5 35t-29.5 22z" />
    <glyph glyph-name="T" unicode="T" horiz-adv-x="491" 
d="M379 515l-3 -23l-9 -80q-1 -14 -2.5 -28t-2.5 -28q-2 -12 -3 -24t-2 -25q-2 -16 -2.5 -31.5t-1.5 -31.5q-2 -14 -2.5 -28t-1.5 -28l-3 -51q0 -12 -1 -25t-1 -25l-2 -45q-2 -23 -2.5 -45.5t-1.5 -45.5q-1 -17 -1 -34.5v-34.5v-34.5t1 -34.5q1 -14 4.5 -30.5t10.5 -29.5
q3 -7 2 -16t-6 -13q-7 -4 -15.5 -3.5t-14.5 8.5q-12 12 -17.5 26.5t-6.5 30.5q0 17 -0.5 21.5t-0.5 9.5q-1 10 -2 19.5t-1 19.5q0 7 1 17t3 23h-1v22q0 2 0.5 8t1.5 14q1 31 1.5 66t2.5 65q2 31 4 61.5t4 61.5q2 35 5 72.5t6 72.5q2 25 5.5 50t6.5 51l6 50h-1q0 4 1 8t1 8v5
t2 10q-6 4 -17 2q-52 -8 -111.5 -19t-110.5 -27q-15 -5 -31.5 -11.5t-30.5 -14.5q-1 -2 -1 -7q-3 -18 -17 -18q-7 0 -13 5t-8 11q-5 19 8 29q4 3 9 6t12 8q28 14 57.5 24t59.5 17q39 8 79 15.5t78 14.5q8 2 19 2.5t23 2.5h1l3 19l4 21l10 53q2 14 4.5 27.5t5.5 27.5l3 7
q5 14 12.5 16.5t21.5 -4.5q2 -5 2 -10.5t-1 -10.5q0 -2 -0.5 -3t-0.5 -3q-4 -22 -7.5 -42.5t-7.5 -41.5q-2 -11 -4 -23.5t-4 -23.5q0 -1 1 -2v-1h10.5t8.5 1q5 0 8.5 0.5t8.5 1.5l21 2v-1q13 2 26 2.5t27 1.5q8 0 14.5 1t14.5 1q11 0 21 -0.5t21 0.5q9 1 19 1.5t19 0.5
q13 0 25.5 -0.5t25.5 -1.5v1q8 0 14.5 -1t13.5 -1q17 -1 33 -3.5t32 -8.5q17 -7 24.5 -21t4.5 -32q-1 -11 -10 -18q-8 -5 -16.5 -2t-10.5 13q0 2 -0.5 6.5t-0.5 6.5v5q-5 5 -13 7.5t-14 4.5q-1 0 -2 0.5t-2 0.5q-14 2 -27 2.5t-27 1.5q-4 0 -8 0.5t-8 0.5q-8 1 -16.5 1.5
t-16.5 0.5l-140 -6l-35 -3l-34 -2q-8 0 -13 -1q-2 0 -2.5 -0.5t-2.5 -0.5z" />
    <glyph glyph-name="R" unicode="R" horiz-adv-x="717" 
d="M215 152q11 -8 19.5 -15t17.5 -14q14 -11 29 -20.5t30 -20.5q55 -35 119 -35q32 1 63 14q42 21 75.5 42t58.5 39t41 31.5t23 19.5q21 19 32.5 16.5t15.5 -10.5q4 -9 -3.5 -24t-41.5 -42q-19 -15 -40.5 -31t-44 -31t-46 -27.5t-45.5 -20.5q-59 -26 -115.5 -20.5
t-110.5 38.5q-29 18 -56.5 38t-52.5 44q-2 2 -3.5 3l-4.5 3q-2 -8 -3.5 -15t-2.5 -14q-4 -29 -8 -59t-8 -59q-3 -23 -6 -44.5t-6 -44.5q-2 -7 -5 -12q-7 -11 -20 -8q-12 2 -12 14q2 14 2.5 27t2.5 26q5 31 9 61t9 60q3 20 6.5 40.5t6.5 40.5q4 24 7 48t7 48q5 31 10 61.5
t11 61.5q9 54 21.5 106.5t26.5 105.5q2 7 4 14.5t10 13.5q3 0 6.5 -0.5t7.5 -0.5q7 -10 6 -19t-3 -17q-7 -28 -14 -55.5t-12 -55.5q-8 -40 -15 -79t-15 -78q-4 -23 -7 -45.5t-7 -45.5q-1 -5 -0.5 -9.5t0.5 -9.5q8 -1 15 1.5t13 5.5q18 11 36 21.5t35 23.5q31 23 60 48t55 54
q33 36 62 74t52 81q12 22 20 45.5t10 48.5q2 21 -7.5 42t-34.5 32q-23 10 -46 11.5t-47 -1.5q-64 -9 -119 -36.5t-106 -65.5q-26 -19 -49.5 -40.5t-44.5 -45.5q-20 -22 -34.5 -47t-21.5 -54q-3 -14 -4 -28.5t7 -28.5q18 -8 20.5 -11.5t0.5 -15.5q-26 -15 -44 8q-9 12 -11 32
q-5 42 9 77.5t37 67.5q26 36 58.5 65.5t67.5 55.5q38 29 79.5 51t87.5 37q34 11 68 13.5t69 -0.5q38 -3 65 -26q25 -21 33 -48t4 -58q-5 -35 -18 -67t-32 -62q-99 -158 -253 -261q-13 -9 -28 -17q-7 -4 -14.5 -7.5t-18.5 -8.5z" />
    <glyph glyph-name="H" unicode="H" horiz-adv-x="596" 
d="M440 225q-57 -10 -112 -22.5t-111 -26.5q-2 -13 -3 -25.5t-2 -24.5q-2 -16 -3.5 -31.5t-3.5 -31.5q-1 -11 -2 -23l-2 -24q-2 -16 -2.5 -32t-2.5 -32q-2 -24 -5 -47.5t-6 -47.5q-2 -10 -4 -14q-4 -9 -8 -11.5t-16 -1.5q-10 8 -7 23q3 16 5.5 32t4.5 32t3 32t3 32
q2 12 2.5 24t2.5 24q2 27 5 54.5t6 54.5v28q-7 0 -10 -1q-63 -15 -121 -40q-6 -3 -12 -6.5t-13 -6.5q-5 -2 -9.5 -3t-8.5 -3q-14 18 -1 27q6 5 13 9t15 8q26 13 54 22t57 18q10 2 19.5 5t20.5 6q1 4 2 6.5t1 5.5q2 26 4.5 52t4.5 52l6 87q1 7 1 13.5v13.5q1 33 1 66v66
q0 8 1.5 15.5t11.5 11.5q10 -2 13 -8t3 -14v-53t-1 -54q0 -29 -1 -59t-3 -59q-2 -30 -5 -59.5t-5 -59.5v-13q57 13 111.5 25t111.5 25q4 29 7 59t7 59q3 29 7 58.5t8 58.5q5 29 8.5 58.5t8.5 58.5q28 11 28 -14q0 -16 -1.5 -31t-3.5 -30q-3 -26 -6.5 -51t-7.5 -51
q-3 -20 -5.5 -40.5t-4.5 -40.5q-2 -14 -3 -28.5t-2 -28.5q-1 -7 -1.5 -14t-0.5 -15q2 -1 4.5 -2t5.5 0q13 2 25 4.5t25 4.5q5 1 8.5 1h8.5q10 0 12 -11q0 -3 -1.5 -7t-3.5 -6q-3 -4 -7 -5.5t-9 -3.5q-15 -3 -30 -5.5t-30 -5.5q-2 0 -4.5 -0.5t-6.5 -1.5q-2 -10 -2 -14
q-2 -12 -2.5 -23.5t-1.5 -22.5q-2 -23 -2.5 -45.5t-2.5 -45.5q-2 -22 -3 -43.5t-3 -44.5q-2 -17 -2.5 -34.5t-1.5 -35.5q-2 -29 -2.5 -59t-2.5 -59q-1 -14 -1.5 -27t-2.5 -26q-3 -15 -11 -30q-14 -26 -37 -2q1 5 1.5 10.5t2.5 10.5q4 9 5.5 18.5t2.5 20.5q1 29 2.5 58
t3.5 58q2 17 2.5 33t1.5 33q2 22 2.5 44t2.5 44l6 72q2 17 3 34l2 34q1 8 1 17t1 19z" />
    <glyph glyph-name="K" unicode="K" horiz-adv-x="521" 
d="M58 143q11 30 26 51.5t34 48.5q30 48 64 92.5t69 88.5q88 108 186 210q8 8 15.5 15t15.5 15q6 5 13 8t15 -1q5 -11 5 -15t-7 -10q-57 -53 -107 -109.5t-100 -115.5q-38 -46 -75 -93t-69 -98q-8 -13 -16 -25.5t-16 -24.5q-2 -3 -3 -6t-3 -7q5 -8 8 -14.5t8 -13.5
q11 -14 21 -28.5t21 -28.5q15 -19 34 -33t44 -19q11 -3 24 0q31 6 57 20.5t52 31.5q16 11 33 25.5t34 30.5t33 31.5t30 28.5q6 6 12 9.5t15 -0.5q5 -11 4.5 -15.5t-8.5 -12.5q-13 -13 -28 -27.5t-30.5 -29.5t-31.5 -29t-31 -24q-20 -15 -40 -27.5t-43 -23.5
q-19 -8 -38 -13.5t-41 -3.5q-21 2 -36 10q-23 11 -42 28t-34 37q-8 11 -15.5 22.5t-15.5 22.5q-3 4 -5.5 7.5t-5.5 8.5q-2 -3 -4 -5.5t-3 -4.5q-8 -14 -14.5 -28t-14.5 -28q-6 -12 -7.5 -25t-3.5 -27q-2 -17 -3 -34l-2 -34l-3 -63q-1 -14 1.5 -27t13.5 -24q2 -2 2 -4t1 -4
l-6 -12q-27 -4 -37 20q-7 17 -8 33q-1 12 -0.5 23.5t0.5 23.5q1 13 1.5 26t1.5 26q1 6 -2 13q-4 8 -3 16.5t4 16.5q9 23 11.5 47.5t4.5 49.5q2 20 4.5 39.5t4.5 39.5q3 20 5.5 40t4.5 40q3 20 6 40.5t5 40.5t4.5 41t4.5 42q2 16 3 32t3 32q0 3 0.5 6t0.5 5q1 24 2 47.5
t2 46.5q0 2 0.5 4t0.5 5q4 2 7.5 3.5t7.5 1.5q5 -1 8 -5t3 -9q2 -8 1.5 -17t-0.5 -17q0 -5 -1 -10.5t-1 -10.5q-3 -36 -5.5 -72t-6.5 -72q-5 -59 -12 -117q-3 -29 -6.5 -58.5t-7.5 -58.5q-1 -8 -0.5 -14.5t0.5 -14.5q-1 0 -1 -1q0 1 0.5 1t0.5 1z" />
    <glyph glyph-name="M" unicode="M" horiz-adv-x="635" 
d="M271 603q1 0 2.5 0.5t3.5 0.5l4 -9l6 -20q0 -5 1 -10t1 -9.5t1 -8.5q0 -1 0.5 -2.5t0.5 -3.5l4 -30v-4q0 -1 0.5 -1.5t0.5 -1.5q2 -7 2.5 -15t1.5 -16q2 -19 4.5 -38t6.5 -36q5 -27 11.5 -52.5t14.5 -52.5q2 -6 3 -10.5t6 -10.5q5 5 7.5 9.5t6.5 11.5q13 27 25 53.5
t23 53.5q27 63 61.5 122t75.5 115q6 8 11.5 15t11.5 11q14 10 26.5 6t18.5 -21q3 -11 3 -23l-3 -26q0 -3 -1 -8t-1 -8l-4 -33l-19 -104l-18 -102q-11 -62 -17 -122q-2 -16 -3 -32l-2 -32q-2 -34 -4 -69t-3 -70q0 -34 1 -67.5t3 -67.5q0 -8 2.5 -15t5.5 -15q3 -11 2.5 -17.5
t-8.5 -10.5q-8 -5 -16.5 -3t-13.5 9q-5 5 -7.5 15.5t-3.5 20.5q-5 29 -5.5 50.5t-0.5 37.5v100q0 6 1.5 27.5t4.5 44.5q2 26 4.5 54t5.5 54q8 68 21.5 143t26.5 143q7 34 12 69l3 28h-1q-3 -5 -7 -5l2 -1q-41 -55 -76 -116t-63 -125l-15 -35l-28 -63q-4 -8 -9 -15t-9 -12
q-11 -14 -28 -14q-20 0 -30 21q-15 36 -24 82q-10 49 -17 97l-6 41l-5 36l-1 1l-2 3v-1q-24 -66 -50.5 -140t-52.5 -150.5t-51 -150.5t-46 -140q-6 -18 -11 -36.5t-10 -36.5q-2 -2 -2 -6q-2 -8 -4 -10v1q-5 -12 -20 -8q-14 3 -14 16q0 1 1 5t3 9l10 31l16 52l25 81
q17 52 34.5 103t36.5 102q14 38 28 78t28 79l14 41l49 135q1 2 2.5 6.5t3.5 6.5q2 5 4.5 11t4.5 10h12z" />
    <glyph glyph-name="B" unicode="B" horiz-adv-x="465" 
d="M286 290q7 -4 12 -7.5t10 -6.5q8 -5 17 -10.5t17 -11.5q37 -27 38 -73q1 -44 -19 -86q-23 -48 -57 -85.5t-78 -67.5q-16 -10 -32 -23q-2 -1 -2.5 -2t-1.5 -2q-5 -18 3 -36q1 -1 3 -5q5 -16 -7 -21q-11 -7 -21 5q-5 7 -8 15q-2 5 -3 10t-3 10h-17q-12 6 -12 17q0 10 11 17
l15 9q0 2 0.5 4.5t0.5 4.5q1 54 1.5 106t2.5 106q1 32 1.5 63t2.5 63q1 28 1.5 55t2.5 55q1 24 1.5 48t1.5 47q0 5 -0.5 9t-0.5 9q-9 -2 -14 -4q-20 -8 -38.5 -16.5t-37.5 -17.5q-18 -8 -34 -18.5t-21 -30.5q-15 -7 -19 3q-4 8 -1 16q3 11 10.5 19.5t17.5 14.5
q15 9 30.5 17.5t31.5 16.5t32 14.5t33 13.5q4 1 12 6q0 11 0.5 22t1.5 23v16t1 16q2 11 13 11q5 1 8.5 -2.5t3.5 -9.5q1 -10 1 -19.5v-20.5v-11t1 -13q5 1 8 1.5t6 1.5q27 8 54 15.5t54 13.5q18 5 36 6.5t36 -3.5q21 -5 31.5 -19.5t7.5 -36.5q-3 -21 -11.5 -39.5
t-19.5 -35.5q-19 -30 -40.5 -57.5t-43.5 -55.5q-6 -8 -11.5 -15.5t-10.5 -15.5q-3 -5 -4.5 -10.5t-3.5 -11.5zM198 518q-1 -3 -1 -9q-2 -38 -2.5 -75.5t-1.5 -75.5l-2 -56t-1 -56q-2 -67 -2.5 -133.5t-2.5 -133.5q0 -5 0.5 -9t1.5 -10q4 2 6.5 3.5t4.5 3.5l26 18t25 20
q58 48 89 124q7 21 9 44q0 40 -34 61q-8 5 -17.5 10.5t-18.5 10.5q-36 22 -16 63q7 15 15 26q18 23 36.5 45.5t35.5 45.5q14 19 26.5 38.5t21.5 41.5q3 9 4 17.5t-1 17.5q-8 7 -16.5 9t-17.5 2q-11 -1 -21 -1.5t-21 -3.5q-29 -8 -57.5 -16.5t-57.5 -16.5q-2 -1 -4.5 -2
t-5.5 -3z" />
    <glyph glyph-name="J" unicode="J" horiz-adv-x="573" 
d="M342 503q-2 5 -5.5 10t-9.5 8q-8 -2 -17 -8.5t-16 -11.5q-31 -25 -62.5 -52t-61.5 -53l-140 -119q-5 -5 -12.5 -7.5t-15.5 2.5q-5 10 -2.5 17.5t9.5 12.5q14 12 28.5 24.5t27.5 23.5l74 65l40 35l93 79q9 7 18.5 13t18.5 10q18 9 33.5 3t24.5 -23q9 -16 14 -32t8 -33
q5 -29 8.5 -57.5t6.5 -57.5q5 -32 7 -66.5t1 -67.5l-3 -50l-3 -30l9 5l7 3q23 11 45.5 20.5t45.5 15.5q13 3 22.5 4t18.5 1q17 0 27 -9t15 -27q-7 -17 -14 -19t-20 9q-12 10 -24 6q-1 0 -2 -0.5t-2 -0.5q-10 -3 -20.5 -7t-19.5 -6q-15 -6 -32.5 -13.5t-31.5 -14.5l-31 -14
l-6 -21q-12 -55 -32 -110t-49 -106q-11 -20 -26.5 -39.5t-30.5 -33.5q-38 -32 -83 -32q-21 0 -40 6q-20 6 -34.5 20t-19.5 34q-4 14 -2 28t6 28q8 23 21 44t27 38q32 38 73 69t84 56q15 9 32 19t33 18q12 6 15 25q3 22 5 48.5t2 53.5q0 8 -0.5 16.5t-0.5 16.5h1
q-1 23 -2.5 45.5t-4.5 44.5q-2 23 -5 46.5t-6 46.5q-2 10 -4.5 18t-4.5 17zM335 57q-28 -16 -55 -33.5t-55 -39.5q-26 -21 -49.5 -44t-40.5 -51q-6 -10 -11.5 -22.5t-9.5 -23.5q-9 -40 28 -53q7 -2 14 -3t15 -1q29 0 54 20q14 11 25 24.5t19 26.5q28 46 48.5 97t34.5 102
l-1 -1v10z" />
    <glyph glyph-name="Y" unicode="Y" horiz-adv-x="561" 
d="M62 581q28 1 22 -22q-3 -14 -6.5 -27t-5.5 -27q-8 -40 -16.5 -79.5t-14.5 -79.5q-5 -26 -7.5 -52.5t-3.5 -53.5q-1 -14 1.5 -29t4.5 -29q2 -9 3.5 -12t9.5 -11q11 -3 19 1t16 10q14 12 28 24.5t26 26.5q51 61 95.5 127t82.5 136q11 20 21.5 39.5t21.5 39.5q3 5 6 9.5
t7 9.5q11 11 23.5 8.5t15.5 -17.5q2 -11 2.5 -23t-0.5 -23q-1 -14 -3 -29t-4 -29q-3 -29 -6.5 -58.5t-8.5 -58.5q-5 -36 -10.5 -72t-12.5 -71q-3 -18 -5 -28.5t-3.5 -19t-3 -19t-5.5 -28.5q-1 -2 -1 -9q5 2 8 2.5t6 2.5q28 14 56 27t58 22q26 8 52 12q32 6 44 -25l-7 -14
q-5 0 -9.5 -1t-9.5 1q-10 4 -19 2l-18 -4q-35 -9 -67.5 -23.5t-64.5 -29.5q-11 -5 -21.5 -11t-21.5 -11q-2 -9 -5 -18t-5 -17q-11 -39 -25 -76.5t-32 -72.5q-11 -21 -23.5 -40t-30.5 -34q-14 -13 -30 -19.5t-36 -4.5q-19 2 -34 14.5t-20 31.5q-6 23 -0.5 42.5t15.5 39.5
q15 28 35.5 51.5t44.5 44.5q25 23 52.5 42t56.5 37q4 5 5 11q4 19 7 31t5 22.5t4.5 22t6.5 31.5q16 79 30 164q5 32 8.5 64.5t7.5 64.5q2 8 2.5 15.5t1.5 15.5l-4 2q-3 -6 -6.5 -12t-6.5 -12q-38 -68 -79 -132t-89 -125q-18 -23 -37 -45t-42 -40q-8 -6 -15.5 -11.5
t-16.5 -8.5q-51 -22 -70 26l-4 12t-2 12q-2 16 -4 31.5t0 32.5q2 14 2.5 27.5t2.5 27.5q4 28 8 55t9 54q8 38 16.5 75.5t16.5 75.5q1 5 2.5 9t3.5 9zM286 22q-14 -7 -31 -19t-33 -25.5t-29.5 -27.5t-22.5 -24q-10 -13 -18.5 -26.5t-14.5 -28.5q-7 -15 -8 -28q-2 -16 10 -27
t29 -4q4 2 8 4.5t8 4.5q13 10 22 22t17 25q14 23 24.5 48t19.5 51q5 13 9.5 26t9.5 29z" />
    <glyph glyph-name="O" unicode="O" horiz-adv-x="377" 
d="M132 581q2 3 3.5 5t3.5 4q12 13 27 20t31.5 8t33 -4t30.5 -16q20 -16 34 -36t24 -44q11 -27 16.5 -56.5t5.5 -58.5q1 -26 0 -51q0 -40 -7 -79t-17 -77q-4 -14 -8 -28.5t-8 -30.5q6 -3 12.5 -3t12.5 2q22 5 37 21q8 7 12.5 7t14.5 -8q4 -10 0 -17t-12 -13
q-13 -11 -28 -16.5t-32 -6.5q-8 -1 -15 -0.5t-15 0.5q-2 -5 -3.5 -8.5t-3.5 -7.5q-14 -30 -29.5 -58.5t-38.5 -53.5l-15.5 -15.5t-16.5 -15.5q-35 -27 -74 -20t-65 46q-13 20 -20 41t-12 43q-9 42 -10 82t3 82q8 83 24.5 164t42.5 160q6 19 16 41q3 7 8 14q8 9 17 8.5
t15 -10.5q2 -2 3 -5.5t3 -8.5zM266 140l6 12q3 11 6 21.5t7 21.5q22 79 27 163q3 49 -8 100q-5 25 -14.5 48.5t-26.5 44.5q-16 22 -38 32q-32 13 -57 -11q-4 -4 -7 -8t-7 -9q-10 -16 -16.5 -33t-11.5 -35q-5 -20 -7.5 -41.5t-2.5 -42.5q-1 -17 1.5 -34.5t4.5 -34.5
q11 -79 61 -141q15 -20 35 -34t48 -19zM120 565q-8 2 -10 -1.5t-4 -7.5q-6 -17 -11.5 -34t-10.5 -34q-14 -47 -23 -94.5t-17 -95.5q-5 -33 -9 -66t-4 -66q1 -17 2 -34.5t2 -34.5q3 -48 22 -90q5 -11 11.5 -21.5t16.5 -18.5q31 -26 64 -7q8 4 14 9l12 10q28 26 46.5 58
t32.5 67q0 1 -0.5 1.5t-0.5 2.5q-7 4 -14 5q-42 14 -69 45q-40 42 -60 91.5t-25 104.5q-2 21 -2.5 42t1.5 42q4 27 9.5 53t17.5 52q2 5 4.5 10t4.5 12z" />
    <glyph glyph-name="E" unicode="E" horiz-adv-x="380" 
d="M106 553q6 8 13 10t18 -4l2 -7v2l4 -11q5 2 11 4t10 3h-1l43 13q21 5 42 9.5t42 9.5q14 3 19.5 -3t3.5 -26q-1 0 -1.5 -1t-1.5 -1l-16 -6q-32 -5 -67 -15.5t-67 -21.5q-2 -1 -5.5 -2.5t-5.5 -2.5l-8 -5q-2 -43 -6 -84.5t-8 -83.5q-4 -30 -7 -57t-5 -57h2q6 0 8 1
q29 6 57.5 13t58.5 15q10 2 13 4l6 2h-1q6 2 11 0.5t10 -9.5q3 -6 2 -12.5t-9 -10.5h1q-7 -7 -20 -9l-60 -16l-61 -15q-5 -2 -11 -3.5t-11 -3.5q-4 -25 -7 -53t-5 -55.5t-3 -52.5t-1 -45v-25.5t2 -17.5l8 2h-1q48 21 99 38t105 31q15 5 32 6q2 0 4.5 0.5t4.5 0.5h12
q16 -2 20 -15v1q2 -6 0.5 -11t-10.5 -14q-23 2 -42.5 -2.5t-39.5 -10.5l-20 -5q-48 -13 -98.5 -32.5t-97.5 -40.5l-56 -27l-8 -2q-5 1 -9.5 6t-3.5 13q1 5 1.5 8.5t1.5 4.5q9 8 15.5 11t11.5 5t11 5t11 5l8 4q0 1 0.5 1.5t0.5 1.5v39q0 17 -0.5 34t0.5 34q1 11 1.5 23.5
t1.5 24.5q0 5 1 11.5t1 11.5l3 35q1 11 2 19t2 19q-9 -2 -16.5 -4.5t-14.5 -5.5l-9 -5q-1 0 -1.5 -0.5t-1.5 -0.5h1q-7 -3 -13 -4t-15 5q-5 12 -2.5 19t13.5 12l22 11l16 7l11 4l15 5l2 17q1 5 1.5 8t0.5 8l6 56l6 56q0 2 0.5 4.5t0.5 4.5q3 20 5.5 39t4.5 39q2 17 2.5 35.5
t1.5 35.5v46z" />
    <glyph glyph-name="U" unicode="U" horiz-adv-x="427" 
d="M326 319q-4 -6 -8 -11.5t-7 -11.5q-30 -56 -60 -111t-61 -110q-11 -20 -25 -38l-28 -36q-8 -10 -17.5 -18t-18.5 -16q-6 -4 -15 -8q-22 -10 -40.5 -3.5t-29.5 28.5q-11 21 -13 43q-2 23 -3 46t1 46q5 70 18 138t27 137l24 108q3 11 7 13t17 -1q4 -8 3.5 -15.5t-2.5 -15.5
q-9 -41 -18 -81t-17 -81q-6 -33 -11 -66l-10 -66q-5 -32 -7 -64.5t0 -64.5q0 -11 1.5 -20.5t3.5 -20.5q0 -3 1 -6t2 -5q13 -36 42 -14q11 9 21.5 20t19.5 22q20 24 36 50.5t30 54.5q43 83 85.5 165.5t84.5 166.5q14 27 25.5 54.5t24.5 55.5q2 4 3 7q5 11 6.5 11.5t16.5 -1.5
q7 -6 6 -13.5t-3 -15.5q-4 -11 -7 -21t-7 -21q-29 -93 -54 -186t-42 -189q-8 -46 -13.5 -92t-10.5 -92q-4 -25 -5 -53t-1 -54.5t0.5 -49.5t0.5 -38q0 -10 -6.5 -14.5t-14 -2.5t-14 11t-6.5 25q1 30 1 59.5t2 58.5q1 14 2 28.5t2 28.5q4 51 11.5 100t17.5 98q8 35 16 69.5
t16 69.5v13q1 3 4 4q-1 1 -1.5 1t-1.5 1q0 -4 -1 -6z" />
    <glyph glyph-name="N" unicode="N" horiz-adv-x="440" 
d="M359 680q2 -4 2 -8q0 -7 -0.5 -14.5t-0.5 -15.5q0 -16 -0.5 -31t-1.5 -31q0 -7 -1 -16.5t-1 -16.5q-1 -8 -1.5 -16t-0.5 -16l-3 -36q0 -9 -1 -18t-1 -17l-5 -88q-2 -22 -3 -43.5t-2 -43.5q0 -1 -0.5 -2t-0.5 -4l-2 -158t-3 -158v-4.5t1 -4.5q0 -2 0.5 -5t0.5 -5v-21
q5 -5 9 -10t7 -13q-7 -14 -16.5 -17.5t-20.5 6.5q-9 8 -19 24q-14 25 -27 49.5t-24 50.5q-27 57 -54.5 117t-52.5 118q-14 32 -27 67t-24 67l-26 71q-2 2 -4 6t-4 6v-2l-2 -33q-1 -8 -1.5 -16t-0.5 -16l-2 -66q-1 -17 -1.5 -32.5t-0.5 -32.5q-2 -38 -3 -76.5t-2 -77.5
q-1 -48 -1.5 -104t-0.5 -104q0 -15 1.5 -29t10.5 -27q2 -3 2 -20q-14 -6 -22.5 -4.5t-14.5 12.5q-9 17 -10 34q-2 25 -3 49.5t-1 49.5q0 41 1.5 80.5t3.5 80.5h-1q0 12 0.5 24t1.5 24h-1q0 12 1 24.5t2 24.5q2 21 2.5 43t1.5 44l4 84l3 53l4 56q1 8 3 16t10 16q3 -1 12 -1
q2 0 5.5 -0.5t6.5 -0.5l10 -23q4 -9 8 -17.5t7 -17.5l35 -94l18 -48t19 -47q30 -75 64 -147.5t71 -144.5q0 -2 1.5 -4t3.5 -4v4l4 82h-1q0 24 1 48t1 48l4 96q2 37 4 73.5t4 73.5q1 17 2 36t3 35l5 72q2 29 3.5 61.5t3.5 61.5q1 14 7 17t20 -2z" />
    <glyph glyph-name="W" unicode="W" horiz-adv-x="481" 
d="M206 351l-3.5 -7l-3.5 -7q-31 -63 -61.5 -124t-61.5 -124q-8 -15 -17 -28q-2 -3 -5 -6.5t-6 -5.5q-23 -15 -36 8q-2 5 -4 10.5t-3 11.5q-4 31 -5 62t3 63q1 5 1 9.5v9.5q2 19 3.5 37t3.5 37q2 20 4 39t5 39l12 96q5 32 11 65t11 66q2 16 5 31t6 31q2 10 7 11.5t17 -2.5
q1 -5 1.5 -9.5t-0.5 -9.5q-11 -45 -17.5 -90t-12.5 -90q-11 -69 -18 -138q-6 -55 -10 -109t-2 -110v-9.5t1 -9.5q0 -3 1 -7t3 -9q7 7 9 11q8 16 15.5 31.5t15.5 31.5q37 74 73 149q13 26 24.5 52t22.5 52q8 17 16 35q5 10 12.5 14t19.5 0q14 -7 12 -25q-1 -14 -2 -27.5
t-3 -27.5q-3 -27 -7 -54.5t-7 -54.5q-8 -72 -12 -144q-3 -47 -3 -92q1 -29 4 -57t11 -56q4 -12 8 -23.5t14 -20.5q14 4 19 20q7 17 13.5 35t10.5 37q14 63 27.5 126t25.5 127q10 51 17 101.5t15 101.5q6 38 10.5 75.5t9.5 75.5q3 27 11 58q1 5 3.5 10t5.5 10q12 17 29 8
q15 -7 9 -26q-10 -33 -13.5 -67.5t-8.5 -68.5q-6 -38 -11.5 -75.5t-10.5 -75.5q-13 -94 -32.5 -186t-41.5 -185q-5 -20 -10.5 -39.5t-12.5 -39.5q-9 -21 -24 -43q-7 -9 -16.5 -15t-21.5 -6q-16 0 -30 11q-17 15 -24 36q-8 20 -12.5 39.5t-6.5 39.5q-2 22 -4.5 44t-2.5 44
q0 24 1.5 48t3.5 49l2 30t3 30q2 23 5 45.5t6 45.5l6 54q0 1 -2 1z" />
    <glyph glyph-name="Q" unicode="Q" horiz-adv-x="403" 
d="M220 -12q21 -66 55 -122.5t76 -110.5q3 0 5.5 -0.5t4.5 -0.5q19 -3 20 -19q0 -22 -18 -25q-20 -5 -33 9q-11 12 -21.5 23.5t-19.5 24.5q-29 42 -54 85.5t-43 91.5l-2 4t-3 5q-5 -3 -8.5 -6.5t-8.5 -6.5q-14 -11 -29.5 -19.5t-33.5 -13.5q-23 -6 -45.5 4.5t-33.5 28.5
q-10 17 -15.5 35.5t-8.5 38.5q-5 26 -4.5 52t4.5 52q4 30 9.5 60t12.5 60q9 40 21 78.5t28 76.5q10 23 21.5 45t28.5 41q3 4 6.5 7t6.5 6q16 16 41 8q1 -2 3.5 -4.5t5.5 -6.5q2 2 3 2.5t2 2.5q7 14 15.5 26.5t19.5 23.5q24 24 58 29q20 3 39.5 -6t32.5 -32q8 -14 12 -29
t5 -31q2 -23 2 -45.5t-2 -45.5q-8 -80 -33 -156q-19 -54 -42 -105t-55 -99q-6 -9 -12 -17.5t-13 -18.5zM207 34q2 -1 5 -1q8 11 17 25q29 48 51 98.5t38 104.5q14 50 22 100t3 103q-2 12 -4.5 24t-7.5 23q-8 20 -24 26t-35 -5q-17 -10 -27 -23q-8 -10 -14 -20.5t-11 -21.5
q-19 -42 -27.5 -85.5t-10.5 -88.5q-3 -54 0.5 -106.5t14.5 -105.5q2 -12 5 -24t5 -23zM175 -11v6.5t-1 6.5q-4 18 -8 35.5t-8 35.5q-8 39 -12 78.5t-5 79.5q0 24 2.5 48t4.5 47q2 32 8.5 63t17.5 62q2 3 2 6t1 6q-8 5 -18 11q-4 -5 -8 -8.5t-7 -8.5q-8 -13 -16.5 -25.5
t-14.5 -26.5q-22 -46 -36 -93.5t-26 -96.5q-10 -42 -15.5 -84t-3.5 -86q2 -34 12 -65q4 -12 12 -24q17 -26 46 -18q5 2 9 3.5t9 3.5q30 16 55 44z" />
    <glyph glyph-name="Z" unicode="Z" horiz-adv-x="437" 
d="M68 416q6 4 13 5q42 13 85.5 29.5t84.5 34.5l24 9q45 18 91 37.5t91 36.5q18 7 35 12q6 1 12.5 1.5t11.5 -0.5v1q19 0 22 -22q3 -21 -6 -38l-7 -14q-6 -12 -12.5 -24t-14.5 -23q-33 -47 -68 -96.5t-70 -94.5q-60 -75 -119.5 -148.5t-120.5 -147.5l-39 -45l-21 -24l-6 -7
l-2 -2h26v-1q14 2 19 2h9v-1l25 3l30 4q13 2 27.5 2.5t27.5 1.5l50 4q29 2 61.5 5.5t59.5 6.5l22 2v-1q10 1 18.5 2t9.5 1v-1q12 1 23.5 2t22.5 1v-1q17 1 34.5 1t34.5 1q12 2 24 1.5t24 -1.5v1q3 0 5.5 -0.5t5.5 -0.5q2 0 7 -0.5t9 -2.5q11 -5 14.5 -14.5t-5.5 -22.5
q-10 -2 -20 -2h-33q-17 0 -33 0.5t-33 -0.5q-22 -1 -44.5 -2.5t-45.5 -3.5q-14 -2 -30 -2.5t-30 -1.5q-18 -2 -38 -2.5t-38 -1.5l-36 -4l-31 -3l-21 -2q-5 -1 -11 -1.5t-10 -0.5q-17 -2 -34.5 -3t-34.5 -2q-17 -2 -33.5 -2.5t-33.5 -1.5h-17q-23 1 -28 17t3 30l15 20l6 9
l26 30q42 48 85 100l20 24q67 83 133.5 164t129.5 166l8 11q18 24 34.5 48.5t30.5 50.5l5 10l4 9q-5 2 -9 0.5t-9 -3.5q-1 0 -1.5 -0.5t-1.5 -0.5l-118 -45l-124 -49l-86 -35q-10 -4 -22.5 -8t-22.5 -7q-10 -5 -22 -5q-12 -1 -15.5 4t-2.5 19z" />
    <glyph glyph-name="F" unicode="F" horiz-adv-x="366" 
d="M191 485q-27 -5 -52 -11.5t-48 -21.5q-5 2 -13 6q-2 12 -0.5 17t10.5 9q26 13 51 19q35 10 71 16.5t73 11.5q31 5 61.5 9.5t62.5 8.5q45 5 89 6q11 0 14.5 -2t10.5 -13q-1 -2 -1 -3.5t-2 -3.5q-1 -3 -5 -7q-73 -5 -144.5 -13.5t-144.5 -20.5q-5 -34 -7.5 -67.5
t-6.5 -66.5l-6 -66t-6 -68h11q32 7 65 13.5t65 13.5q16 3 31 5.5t32 5.5q5 -1 8.5 -3.5t3.5 -9.5q1 -13 -13 -17t-29 -7l-30 -6q-36 -7 -72 -13.5t-73 -14.5l-2 -12t-2 -11q-2 -51 -4 -102.5t-4 -103.5q-1 -20 -2 -40.5t-1 -40.5q1 -12 2.5 -24t3.5 -23q1 -5 1 -10.5
t1 -11.5q-4 -2 -7.5 -4t-5.5 -4q-11 1 -16 6t-8 13q-2 7 -3.5 14t-1.5 14v80.5t1 80.5q1 30 3 59.5t4 59.5l2 18l2 18q0 4 -0.5 7t-1.5 7q-38 -7 -74.5 -17.5t-74.5 -17.5q-7 8 -9 13l2 6q3 6 8 8t11 4l129 33l6 2t7 3l14 134t14 136z" />
    <glyph glyph-name="V" unicode="V" horiz-adv-x="352" 
d="M63 -126q8 13 14 24t11 22q32 72 61.5 143.5t57.5 145.5q37 97 67.5 195t62.5 197q11 35 27 73q3 10 9 19q7 9 17 11t18 -4q8 -7 8.5 -20t-7.5 -20q-3 -2 -6.5 -4t-8.5 -5q-10 -24 -17 -49q-24 -73 -47.5 -145.5t-47.5 -145.5q-26 -79 -57 -155.5t-64 -152.5
q-14 -32 -28 -62t-29 -61q-8 -16 -20 -28q-13 -14 -28 -11t-23 20q-3 7 -5.5 14.5t-3.5 15.5q-4 22 -7 43l-6 42q-4 29 -5 58t-3 58q-3 46 -2.5 92t-0.5 93v89.5t1 89.5q0 18 1 36l2 36q2 12 4 19q5 15 18 10q6 -2 9.5 -7.5t1.5 -11.5q-2 -4 -4 -7.5t-5 -8.5
q0 -60 -0.5 -120t-0.5 -122q0 -41 0.5 -81t2.5 -81q2 -45 5 -89t10 -89q3 -16 6 -32.5t12 -33.5z" />
    <glyph glyph-name="P" unicode="P" horiz-adv-x="363" 
d="M15 522q9 -2 12.5 -7.5t4.5 -12.5q2 -20 4.5 -38.5t3.5 -38.5q2 -51 3 -101t2 -101q0 -6 0.5 -12t5.5 -13q2 14 5 25.5t5 23.5q13 67 33.5 131t50.5 125q23 45 54 83q15 17 31.5 30t39.5 19q30 7 56 -13q25 -20 35 -51q14 -47 11 -100q-2 -26 -5 -51t-10 -50
q-13 -53 -35 -101t-54 -91q-51 -67 -139 -78q-14 -2 -27 -3t-27 -3q-1 -2 -2 -4.5t-1 -5.5q-2 -16 -3 -31.5t-2 -30.5l-2 -72t-2 -71q0 -17 -10 -26q-14 -2 -19.5 2t-6.5 16q-2 29 -4 57t-4 57q-5 84 -4 167t-1 167q0 29 -1 57t-2 57q-1 11 -1.5 22.5t-2.5 23.5q-1 4 -2 7.5
t-3 8.5q-4 11 -1 16t14 11zM80 143q5 -5 9.5 -5.5t9.5 0.5q11 2 23 3.5t24 3.5q47 10 81 49q27 30 45.5 64.5t32.5 72.5q11 30 18 61t10 63q2 21 2 41.5t-3 41.5q-5 27 -19 47q-19 25 -46 11q-6 -3 -12 -7t-11 -9q-19 -17 -33 -37t-25 -42q-28 -53 -47 -108t-33 -112
q-9 -34 -15.5 -68.5t-10.5 -69.5z" />
    <glyph glyph-name="I" unicode="I" horiz-adv-x="224" 
d="M118 571q-20 -8 -38.5 -15t-37.5 -15q-6 -3 -12 -5t-14 1q-8 7 -2 20q34 18 70 31t74 26q37 14 74.5 23.5t77.5 17.5q2 -2 6 -5t7 -5q-2 -11 -7 -15t-12 -6q-14 -3 -27.5 -6t-27.5 -7q-23 -6 -45.5 -13t-44.5 -14q-2 0 -8 -4q-2 -10 -2 -15q-4 -92 -12 -187l-4 -76
l-4 -76q-5 -78 -8.5 -155.5t-5.5 -155.5q-2 -18 -0.5 -36t1.5 -38q5 2 8.5 2t7.5 2q14 5 29.5 9t29.5 9q13 4 23 -5q2 -13 -1 -17.5t-15 -9.5q-39 -13 -78.5 -26t-78.5 -26q-12 -3 -24 -3q-10 -1 -12 10q-3 11 7 16q4 2 7.5 3t7.5 3q15 5 30.5 10.5t32.5 11.5
q-10 25 -10.5 49.5t0.5 50.5q2 56 5 111.5t5 111.5l4 60l4 60q2 29 4 59t4 59q2 25 3.5 49.5t3.5 49.5q2 16 3.5 31.5t2.5 31.5q1 4 0.5 8t-1.5 10z" />
    <glyph glyph-name="braceright" unicode="}" horiz-adv-x="388" 
d="M274 252l-3 4.5t-3 3.5q-23 23 -34.5 52.5t-15.5 61.5q-3 28 -4.5 55.5t-3.5 55.5q-2 17 -4.5 34.5t-7.5 34.5q-5 20 -20.5 23.5t-29.5 -10.5l-4 -4l-4 -4q-14 -10 -24 0q-11 9 -1 24q1 1 1 1.5t1 1.5q29 27 68 26q28 -2 40 -28q5 -11 8 -22t5 -22q5 -29 7 -58.5t6 -58.5
q2 -18 4.5 -36t5.5 -35q11 -49 50 -77q13 -10 14 -21.5t-10 -22.5q-26 -23 -39.5 -52.5t-21.5 -61.5q-10 -40 -19.5 -75.5t-20.5 -74.5q-9 -35 -27 -65q-19 -34 -47.5 -56t-67.5 -29q-12 -2 -24 -1t-23 4q-17 5 -21.5 12.5t-1 14t13.5 10.5t22 3q30 -4 54.5 10t44 41
t33.5 66t25 85q5 17 8 34t8 34q10 34 23.5 65t39.5 57z" />
    <glyph glyph-name="equal" unicode="=" horiz-adv-x="309" 
d="M13 58q-3 2 -6.5 3.5t-5.5 5.5q-2 5 0 9t7 6q7 4 16 6q48 16 95.5 27t96.5 20q6 1 11.5 2t11.5 2q6 0 11.5 -2t7.5 -10q1 -8 -4 -11t-11 -5q-16 -4 -32 -6t-32 -6l-72 -18t-72 -17q-10 -3 -22 -6zM65 163q-16 0 -19 12q-3 13 11 18q17 7 31 8q36 6 72 11.5t72 10.5
q7 1 17 -1q13 -2 13 -14t-13 -15q-14 -2 -27.5 -3.5t-27.5 -3.5q-30 -5 -59.5 -10t-59.5 -10q-8 -2 -10 -3z" />
    <glyph glyph-name="zero" unicode="0" horiz-adv-x="338" 
d="M0 104q-1 65 13.5 126t34.5 121q10 29 21.5 56.5t22.5 55.5q5 13 13 24t21 19q4 2 6.5 6t5.5 8q23 29 52.5 30.5t56.5 -24.5q20 -20 31 -45.5t15 -54.5q8 -66 -3.5 -130t-29.5 -127q-10 -34 -22 -66t-29 -63q-10 -20 -21.5 -37.5t-28.5 -31.5q-11 -8 -22.5 -15.5
t-24.5 -12.5q-25 -10 -47 -2t-37 31q-14 20 -19.5 41t-7.5 44q-2 11 -1.5 23t0.5 24zM33 96q1 -9 1.5 -23t2.5 -29q2 -14 7 -28t14 -26q19 -28 48 -14q9 5 17.5 10t15.5 13q23 28 41 59q18 33 30 68.5t22 72.5q12 48 20 96t7 98q0 26 -6 51t-23 47q-19 23 -35 23t-34 -23
q-4 -5 -8 -10.5t-9 -6.5q-11 -2 -16 -8t-8 -14q-11 -29 -22.5 -57t-20.5 -57q-19 -57 -30.5 -116.5t-13.5 -125.5z" />
    <glyph glyph-name="hyphen" unicode="-" horiz-adv-x="353" 
d="M38 188h-23q-14 2 -15 15q-2 13 11 18q8 2 15.5 4t15.5 3q57 5 113.5 10t113.5 10q7 1 15 0q17 0 20 -17q2 -17 -14 -22q-6 -2 -12 -3l-12 -2q-25 -2 -49.5 -3.5t-49.5 -3.5q-32 -2 -64.5 -4t-64.5 -4v-1z" />
    <glyph glyph-name="numbersign" unicode="#" horiz-adv-x="433" 
d="M48 60h-26q-6 0 -10.5 2t-5.5 9q-1 13 12 17q6 2 12.5 1.5t12.5 0.5t10.5 2.5t6.5 9.5l24 78q0 -1 -2 5q-15 -2 -29.5 -4.5t-28.5 -9.5q-14 -9 -22 3q-3 5 -1.5 12t7.5 11q11 7 25 10q26 8 52 12q13 1 18 16q19 52 37.5 104t36.5 104q2 5 4 10.5t5 10.5t8 8t11 1
q14 -5 12 -20q-1 -5 -2 -9t-3 -9q-16 -45 -31 -90t-31 -90q-2 -5 -3.5 -10.5t-3.5 -13.5q20 3 37.5 6t34.5 6q8 2 16 3.5t16 2.5q10 0 15 5t8 13l32 90l32 90q3 7 4 14t3 15q2 10 7.5 16t12.5 5q8 -1 12.5 -8.5t1.5 -18.5q-5 -19 -10.5 -37.5t-12.5 -36.5q-10 -29 -20 -58.5
t-21 -58.5q-2 -5 -3 -9.5t-3 -11.5q9 1 17 1.5t16 1.5t16 1.5t16 0.5q9 0 17.5 0.5t16.5 -0.5q7 -1 12.5 -4.5t6.5 -11.5q1 -15 -15 -20q-8 -5 -17 -6.5t-18 6.5q-5 4 -12 2l-30 -2t-29 -3q-4 -1 -8 -3.5t-5 -5.5q-9 -23 -17.5 -47t-18.5 -50q19 2 35 3.5t32 3.5
q5 1 8.5 1.5t8.5 -0.5t9.5 -4t3.5 -9q-1 -8 -10 -15q-2 -2 -5.5 -2.5t-6.5 -0.5l-34 -4l-34 -4q-19 -3 -26 -21q-14 -45 -29 -90t-29 -90q-2 -5 -4.5 -10t-5.5 -10q-7 -12 -20 -6q-12 5 -11 18q1 5 2 9t3 9q14 40 27 79.5t26 79.5q4 9 8 23q-13 -2 -23.5 -3t-20.5 -3
q-14 -2 -27 -3.5t-26 -2.5q-14 -1 -17 -16l-30 -135q-2 -5 -2.5 -8.5t-2.5 -8.5q-7 -13 -20 -10q-17 2 -15 17q0 20 5 43q5 24 11 47.5t11 47.5q2 3 2 7t2 10zM100 99q5 -1 6.5 -1.5t3.5 -0.5q22 4 44 7l44 6q10 1 14.5 6.5t7.5 13.5q2 8 4.5 14.5t5.5 14.5q5 13 9.5 26
t9.5 27q-3 1 -4 1.5t-3 0.5q-26 -5 -51.5 -9t-51.5 -9q-3 0 -6.5 -3t-4.5 -6q-8 -21 -14.5 -43t-13.5 -45z" />
    <glyph glyph-name="bracketright" unicode="]" horiz-adv-x="169" 
d="M71 592l-40 -10q-5 -1 -9.5 -2t-9.5 0q-3 1 -7.5 4t-4.5 5q1 4 3.5 7.5t5.5 6.5q0 -1 3 2q13 3 25.5 6.5t26.5 7.5q30 7 36 -24q2 -8 3 -16.5t1 -17.5q0 -58 -1 -115.5t-1 -115.5q0 -60 0.5 -119t2.5 -119q1 -35 4 -70.5t6 -70.5q1 -11 1 -23v-24q1 -28 -21 -47
q-29 -26 -64 -26q-5 0 -11 2q-16 5 -13 21q2 8 6.5 9.5t11.5 3.5q18 2 33 7q27 9 25 39l-2 26t-2 27q-10 98 -9.5 195t0.5 195q1 48 1.5 94t1.5 93q0 11 -0.5 23t-1.5 26z" />
    <glyph glyph-name="two" unicode="2" horiz-adv-x="443" 
d="M41 440q2 -7 6 -14.5t-4 -12.5q-7 -5 -14.5 -6.5t-15.5 -1.5t-11.5 7t-1.5 16l4 10t4 9q31 41 68 70.5t82 43.5q38 13 62.5 -7.5t25.5 -66.5q2 -29 -3 -57.5t-15 -54.5q-18 -51 -37 -101.5t-39 -101.5q-14 -39 -29 -78.5t-30 -78.5q-3 -7 -4.5 -14t-3.5 -15
q-2 -12 1 -15.5t14 -0.5q25 7 55 18q44 16 86.5 32t87.5 32q14 5 29.5 8.5t30.5 8.5q16 4 23 -10q8 -17 -7 -29q-7 -5 -15 -7q-60 -13 -116.5 -33.5t-113.5 -42.5q-18 -7 -35.5 -12.5t-37.5 -4.5q-38 2 -37 43q1 14 3.5 27t7.5 25q20 54 41.5 107t41.5 107q16 41 31 82.5
t29 83.5q7 20 10.5 42t0.5 44q-6 54 -50 38q-16 -6 -31 -14t-29 -17q-36 -22 -64 -58z" />
    <glyph glyph-name="six" unicode="6" horiz-adv-x="341" 
d="M53 177l9.5 9.5t7.5 6.5q25 20 49 40.5t50 40.5t62 28q26 5 44 -6.5t25 -36.5q6 -24 4 -47t-10 -46q-41 -128 -135 -222q-14 -15 -31 -25.5t-37 -15.5q-40 -9 -65 25q-11 16 -18 37q-7 27 -7.5 54t1.5 54q8 103 40.5 196t73.5 185q17 38 35 74l36 72q3 7 6.5 13t7.5 12
q12 17 25 9q12 -5 2 -25l-15 -27q-48 -92 -88 -186.5t-67 -195.5q-2 -5 -2.5 -10t-2.5 -13zM37 63q-3 -10 -3.5 -25.5t1 -31t5.5 -30t9 -22.5q16 -27 42 -15q12 5 23.5 12.5t20.5 16.5q88 88 126 208q5 15 5.5 31t0.5 31q0 39 -36 26q-23 -8 -39 -19q-64 -43 -112 -98
q-8 -10 -15 -20t-14 -21q17 -17 14 -28.5t-28 -14.5z" />
    <glyph glyph-name="slash" unicode="/" horiz-adv-x="279" 
d="M0 -179q2 7 3 11.5t3 9.5q112 319 255 628q2 5 5 10q10 16 22 9q13 -7 7 -23q-2 -7 -5 -14t-5 -14q-32 -75 -64 -148t-62 -148t-57.5 -150.5t-55.5 -150.5q-7 -16 -13 -28q-3 -6 -9 -8.5t-12 1.5q-5 2 -7.5 6.5t-4.5 8.5z" />
    <glyph glyph-name="at" unicode="@" horiz-adv-x="410" 
d="M221 217q-11 -17 -20 -31.5t-20 -27.5q-9 -13 -18.5 -24.5t-20.5 -22.5q-9 -8 -20 -12.5t-24 0.5q-12 6 -14.5 17.5t-1.5 24.5q0 16 4 28q10 32 24.5 61t35.5 55q15 18 38 31q17 10 30 4t20 -26q4 -11 9 -22t8 -22q3 -12 4.5 -24t3.5 -23q2 -6 3.5 -11.5t4.5 -10.5
q12 -21 31 -7q12 9 20 23q16 24 21.5 50.5t3.5 54.5q-1 21 -6.5 40.5t-14.5 38.5q-8 17 -24 30.5t-35.5 20.5t-41.5 6t-43 -13q-19 -11 -35 -24.5t-30 -30.5q-54 -71 -69.5 -148t9.5 -163q2 -7 5 -13t5 -12q34 -73 111 -74q19 0 37.5 3t37.5 7t31 16t18 30q2 8 4 13
q7 15 21 12q8 -2 11.5 -7.5t1.5 -12.5q-5 -48 -44 -74q-8 -6 -17 -9q-61 -23 -128 -14q-42 6 -71.5 30t-47.5 62q-26 59 -28 127q-2 79 23 147.5t82 125.5q20 20 43.5 34.5t52.5 21.5q19 4 39.5 2t40 -10t36 -21t26.5 -29q33 -58 35.5 -116.5t-32.5 -118.5q-11 -20 -29 -32
q-24 -17 -47 -10.5t-34 32.5q-4 8 -6 15l-4 14l-2 8t-3 11zM111 128q11 4 17.5 10t11.5 14l34 52t35 52q5 8 4.5 14.5t-3.5 13.5q-6 14 -18 6q-6 -5 -12.5 -10t-11.5 -12q-20 -26 -34.5 -55t-22.5 -62q-1 -5 -0.5 -10.5t0.5 -12.5z" />
    <glyph glyph-name="eight" unicode="8" horiz-adv-x="348" 
d="M123 252q-2 4 -3.5 8t-3.5 9q-26 59 -19.5 114t44.5 107q34 48 80 78q12 9 27 15q25 11 44.5 1t24.5 -37q6 -33 3 -70q-5 -61 -23.5 -118t-37.5 -115q-4 -12 -7.5 -24t-6.5 -23q-2 -4 -3 -7t0 -6q2 -12 -1 -21t-15 -14q5 -14 10.5 -26t9.5 -25q8 -23 11 -44
q4 -29 -5.5 -53.5t-29.5 -45.5q-25 -27 -55 -45t-67 -25q-45 -8 -72.5 14t-27.5 68q0 19 3.5 38t8.5 37q15 46 35.5 88.5t46.5 82.5q7 10 14 19t15 20zM137 227q-9 -11 -14 -18q-29 -45 -51.5 -92.5t-36.5 -98.5q-8 -27 -6 -57q1 -26 18 -40t43 -9q72 15 116 72q31 38 16 84
l-4 12t-4 11q-14 36 -34 68.5t-43 67.5zM195 202q3 4 5 6q16 45 31.5 90t29.5 90q11 33 17 67.5t4 69.5q-2 19 -8.5 23t-22.5 -6q-38 -23 -66.5 -55.5t-43.5 -75.5q-14 -39 -8 -77q7 -37 24 -68.5t38 -63.5z" />
    <glyph glyph-name="one" unicode="1" horiz-adv-x="235" 
d="M97 -83q22 10 41 18.5t37 17.5q25 11 31 -3q7 -17 -15 -29q-28 -14 -55.5 -26t-55.5 -25q-11 -6 -23 -11t-23 -10q-5 -2 -9 -4t-9 -1t-9.5 3.5t-5.5 6.5q-2 3 0 8.5t4 9.5q3 4 7 6t9 4q9 5 18.5 9t17.5 8q5 154 14.5 304t23.5 302q-2 0 -2.5 0.5t-1.5 0.5q-2 -5 -5 -9
t-5 -9q-4 -10 -7.5 -19t-8.5 -18q-2 -3 -6.5 -5.5t-6.5 -1.5q-3 2 -6 6t-3 8q-1 10 4 21q11 27 21.5 53.5t21.5 53.5q1 6 5 11q8 10 18 9t15 -12q2 -6 4 -12.5t1 -12.5q-2 -62 -6 -122q-2 -33 -4.5 -66t-4.5 -65q-3 -50 -6 -99l-6 -98q-2 -44 -4.5 -86.5t-4.5 -85.5v-30z
" />
    <glyph glyph-name="four" unicode="4" horiz-adv-x="326" 
d="M173 307q-20 -5 -39 -10t-38 -9q-15 -4 -29.5 -1.5t-28.5 7.5q-18 8 -28.5 21t-9.5 33q1 13 1.5 25.5t4.5 23.5q15 42 31 82t33 81q2 5 4 9.5t6 6.5q4 3 9.5 5t9.5 0q3 -2 5.5 -7t2.5 -10q1 -5 -1.5 -9t-4.5 -8t-4.5 -6.5t-4.5 -6.5q-14 -38 -27.5 -75t-27.5 -75
q-2 -5 -3 -10.5t-2 -11.5q-3 -35 31 -39q68 -7 119 40q5 5 7.5 11t4.5 12q15 51 29.5 101t28.5 101q5 16 12 28q10 19 25 14q15 -4 12 -25q-4 -20 -8 -41t-9 -41q-10 -39 -21.5 -77.5t-28.5 -76.5q-11 -22 -15 -46.5t-10 -48.5q-20 -85 -35 -170.5t-29 -172.5q-1 -8 -1 -16
v-16q0 -25 -19 -26q-10 0 -17 6.5t-8 17.5q-2 20 1 38q8 45 15.5 88.5t15.5 87.5q9 47 19 92.5t21 91.5q1 5 1 12z" />
    <glyph glyph-name="three" unicode="3" horiz-adv-x="293" 
d="M193 597q-13 -3 -17 -5q-35 -17 -67.5 -37t-60.5 -48q-5 -5 -9.5 -10.5t0.5 -14.5q3 -7 -2 -11t-14 -5q-11 -1 -17.5 4t-5.5 13q2 16 11 25q23 26 45 44q24 20 50 36t55 30q12 6 26 9q17 4 27.5 -4.5t8.5 -26.5q-1 -7 -3 -13t-4 -13q-6 -15 -12 -30.5t-12 -31.5
q-3 -6 -5 -12t-4 -13q-12 -36 11 -68q8 -12 16 -22q29 -38 38 -80.5t4 -89.5q-7 -64 -26.5 -124t-48.5 -118q-40 -77 -117 -111q-6 -2 -12 -4.5t-13 -4.5q-14 -3 -23 9t-1 24q4 5 8 10.5t9 9.5q3 2 8.5 3.5t8.5 -0.5q8 -5 14.5 -3t13.5 6q23 14 39.5 33t29.5 42
q56 105 74 219q4 23 4.5 46.5t-7.5 46.5q-5 15 -11 29t-14 28q-5 10 -11 18t-12 17q-14 20 -17 42t3 45q6 20 13.5 39t15.5 38q3 8 6 15.5t7 18.5z" />
    <glyph glyph-name="five" unicode="5" horiz-adv-x="388" 
d="M36 219q7 5 14 8.5t15 8.5q23 14 45 28t45 28q10 6 20 11.5t21 9.5q19 7 35 7q18 0 29 -10.5t13 -28.5q2 -17 0.5 -33t-6.5 -32q-17 -46 -34 -91.5t-35 -90.5q-10 -24 -21.5 -47.5t-22.5 -47.5q-4 -9 -7 -18t-8 -17q-9 -17 -18 -28q-11 -13 -26 -3q-15 8 -9 25
q2 5 4.5 11t5.5 11q70 135 123 279q5 14 9 29.5t7 30.5q6 34 -24 20q-18 -8 -36 -17.5t-35 -19.5q-20 -12 -40 -24.5t-40 -24.5q-7 -4 -14.5 -6.5t-15.5 -3.5q-32 -3 -30 27q0 26 7 47q13 40 27 80l28 80q6 17 11.5 34.5t11.5 34.5l2 8t1 8q-1 9 -4.5 12t-12.5 3h-15.5
t-14.5 2q-4 1 -8 4.5t-5 6.5q-2 6 2 10t9 6q2 1 4.5 1t4.5 1q45 5 89 9t89 9q47 5 92 6q5 1 11 0.5t11 -1.5q17 -3 25 -15t4 -29q-4 -13 -15 -13q-5 1 -10 3.5t-6 5.5q-4 10 -10 12t-14 1q-45 -3 -89.5 -6.5t-89.5 -6.5q-11 -1 -15 -12q-8 -32 -17.5 -63.5t-19.5 -63.5
q-11 -33 -22.5 -66t-22.5 -66q-2 -8 -3 -15t-3 -15q2 -2 4 -3z" />
    <glyph glyph-name="dollar" unicode="$" horiz-adv-x="323" 
d="M132 -7q-13 -2 -24.5 -3.5t-23.5 -1.5q-14 -1 -27.5 -0.5t-27.5 2.5q-22 4 -27.5 19.5t6.5 33.5q4 5 7.5 9t8.5 7q8 6 15.5 6.5t12.5 -4.5q6 -7 5.5 -13t-5.5 -13q-2 -2 -5 -8q43 -4 82 7q6 2 7 7t1 10l3 72l6 126q1 14 -9 21q-8 7 -15 13.5t-14 14.5q-25 27 -29 60
t13 66q24 44 68 68q16 8 19 28q2 20 5.5 38.5t6.5 38.5q1 9 6 20q2 5 7 7.5t10 -0.5q4 -2 6.5 -6t3.5 -8q1 -5 -0.5 -11t-2.5 -11q-2 -19 -5 -37t-5 -38q13 -3 24 -6q28 -9 33 -38q2 -16 -11 -20q-8 -2 -11 2.5t-4 10.5q-4 17 -23 19q-14 2 -15 -12q-2 -20 -5.5 -41
t-5.5 -42l-4 -48l-4 -48q-1 -15 10 -23q11 -11 22 -21t21 -22q26 -33 28.5 -69.5t-18.5 -72.5q-22 -39 -62 -64q-16 -8 -16 -27v-72t-1 -71q0 -14 -3 -27q-5 -17 -22 -14q-14 3 -14 20q0 12 0.5 24.5t1.5 24.5q1 27 1 53.5t1 53.5q0 2 -0.5 4zM183 230q-5 -43 -7 -85t0 -85
q23 17 39 38t16 50q1 27 -13.5 46.5t-34.5 35.5zM168 458q-22 -8 -38.5 -31.5t-19.5 -49.5q-3 -19 9 -40t31 -30q5 38 9 75.5t9 75.5z" />
    <glyph glyph-name="nine" unicode="9" horiz-adv-x="326" 
d="M247 453q-4 -3 -7.5 -6t-6.5 -7q-24 -26 -49 -51.5t-55 -45.5q-28 -17 -59 -30q-8 -3 -17 -3.5t-17 0.5q-17 1 -27.5 16.5t-8.5 35.5q2 9 3.5 18.5t4.5 18.5q20 51 50.5 93t75.5 74q13 9 27.5 16t31.5 9q25 3 40 -9.5t17 -38.5v-27q4 5 7 8t5 7l39 57q3 4 5.5 7.5
t5.5 5.5q5 2 10.5 3.5t10.5 -0.5q4 -2 7 -7t2 -10q0 -14 -7 -31q-15 -40 -31 -79.5t-31 -80.5q-36 -94 -62 -189t-44 -194q-4 -21 -6 -43l-4 -44q0 -7 2 -14.5t4 -14.5q9 -23 -5 -32q-7 -5 -16 -4t-17 9q-11 11 -15 24.5t-3 27.5q2 26 5 52t8 52q39 211 121 406q2 5 3 11
t2 11q1 0 2 1q-1 -1 -1 -2zM243 505q-14 1 -17.5 7.5t-1.5 16.5q1 5 0 9l-2 8q-8 24 -28 16q-13 -5 -25 -10.5t-23 -13.5q-38 -28 -64 -65t-43 -82l-4 -14t-2 -15q-3 -31 23 -20q32 11 56 28q38 27 69 61.5t62 73.5z" />
    <glyph glyph-name="seven" unicode="7" horiz-adv-x="279" 
d="M268 592q-8 -2 -13 -3.5t-10 -3.5q-41 -14 -81.5 -27.5l-82.5 -27.5q-5 -2 -13 -4q-20 -5 -23 9q-5 13 16 19q7 3 14 5t15 5q46 16 91.5 32t91.5 32q2 1 3.5 1.5t3.5 1.5q16 4 24 -2.5t6 -23.5q-2 -10 -5 -19t-7 -19q-20 -48 -40 -95.5t-41 -95.5q-54 -121 -96.5 -245
t-78.5 -252q-2 -10 -4 -15q-8 -17 -23 -12q-15 3 -15 19q0 6 1 12.5t3 12.5q7 23 13.5 45.5t13.5 45.5q42 140 95.5 272.5t113.5 264.5q6 13 11.5 25.5t10.5 25.5q2 4 3 7.5t3 9.5z" />
    <glyph glyph-name="plus" unicode="+" horiz-adv-x="326" 
d="M103 180q-13 -3 -24.5 -5.5t-23.5 -4.5q-8 -2 -16.5 -4t-16.5 -4q-14 -5 -21 7q-2 6 1 12t11 9q7 4 18 6q14 4 28.5 7t28.5 7q13 4 16 7t5 17q2 17 4.5 35t4.5 36v6q2 7 5.5 11t11.5 4q16 -2 14 -19q0 -9 -1.5 -18t-2.5 -18q-1 -11 -1.5 -22.5t-2.5 -25.5q15 2 28 4.5
t26 4.5t25 4.5t24 4.5q21 3 24 -13q2 -14 -18 -19q-24 -5 -47.5 -9.5t-47.5 -8.5q-11 -2 -14 -6.5t-3 -13.5l-3 -99v-9t-2 -9q-4 -19 -20 -16q-12 1 -12 20q1 26 1.5 53t0.5 53v16z" />
    <glyph glyph-name="asterisk" unicode="*" horiz-adv-x="242" 
d="M61 396q-8 1 -12.5 1t-9.5 1q-14 0 -15 11q-1 12 13 14q5 1 9 1h9q7 -1 14 -1.5t15 -1.5q2 8 3 14.5t3 13.5t3.5 13.5t3.5 12.5q6 21 20 16q9 -3 9.5 -9.5t-1.5 -13.5q-2 -8 -4 -16.5t-4 -18.5q5 2 8 2t5 2l16 10l16 10q5 2 9 4.5t9 1.5q10 0 14 -9q2 -2 -1 -6.5t-6 -6.5
q-9 -6 -18.5 -11.5t-18.5 -10.5q-4 -2 -7.5 -4.5t-8.5 -6.5l14 -7t13 -6q22 -12 16 -23t-28 -1q-8 4 -17.5 7t-20.5 8q-1 -9 -1 -16.5t-1 -15.5q-1 -5 -1.5 -11t-2.5 -11q-6 -8 -15 -8q-3 1 -6 5t-3 7q-2 8 -1.5 17t0.5 20q-14 -5 -24 -13l-20 -16q-3 -2 -6 -5.5t-6 -5.5
q-12 -10 -21 -2q-8 10 3 19l18 16t19 16l8 6t10 8z" />
    <glyph glyph-name="asciitilde" unicode="~" horiz-adv-x="408" 
d="M258 163q-34 1 -66 20q-10 7 -19.5 13t-20.5 13q-26 17 -56 5q-33 -13 -55 -36q-5 -5 -7.5 -10.5t-4.5 -10.5q-3 -14 -15 -14q-16 2 -14 17q0 11 5 18q20 31 48 50.5t66 24.5q15 2 28.5 -2t26.5 -11q10 -6 19.5 -12t19.5 -11q52 -28 96 9q6 5 12 10.5t12 11.5q3 2 6 4.5
t6 4.5q7 4 14 3.5t12 -5.5q10 -10 2 -27q-2 -2 -3 -3.5t-3 -3.5q-12 -11 -24 -21t-25 -19q-13 -10 -28 -13.5t-32 -4.5z" />
    <glyph glyph-name="greater" unicode="&#x3e;" horiz-adv-x="209" 
d="M164 235q-4 -8 -7 -15t-8 -14q-8 -11 -16.5 -20.5t-16.5 -20.5q-17 -25 -32 -50t-31 -50q-4 -6 -7 -12.5t-8 -11.5q-7 -8 -15 -9.5t-14 3.5q-15 11 -6 29q20 38 42.5 74.5t50.5 69.5q4 4 7 8t7 8q10 11 10.5 16t-10.5 16q-14 16 -29.5 30t-29.5 29q-9 9 -18.5 18
t-17.5 19q-13 16 -2 25q12 10 27 -5q13 -11 26 -22.5t25 -23.5q16 -16 31 -32.5t30 -33.5q4 -5 6 -11.5t6 -13.5z" />
    <glyph glyph-name="less" unicode="&#x3c;" horiz-adv-x="253" 
d="M0 215q-1 11 4 19t12 16q17 17 33 34t33 34l28 30l28 30q2 2 2.5 3t2.5 3q18 20 31 9q14 -13 -1 -33q-16 -21 -35 -41q-21 -22 -42.5 -43.5t-42.5 -44.5q-10 -11 -10.5 -16t8.5 -16q10 -14 21 -27.5t23 -27.5q13 -14 26 -26.5t26 -26.5q9 -9 13 -17q5 -7 3.5 -15
t-6.5 -13q-12 -11 -28 0q-2 2 -3 2q-29 31 -58.5 60.5t-52.5 65.5q-6 9 -11 19t-4 22z" />
    <glyph glyph-name="bracketleft" unicode="[" horiz-adv-x="169" 
d="M0 351q1 57 2 105l2 96v9.5t1 9.5q1 9 5.5 15t14.5 7q22 4 44 6.5t44 5.5q5 0 15 -2q5 -2 9.5 -5t2.5 -10q-1 -3 -5 -5.5t-8 -4.5q-3 -2 -6.5 -1.5t-7.5 0.5q-16 -2 -31.5 -4t-32.5 -4q-14 -1 -14 -17v-47q-1 -75 -1.5 -148.5t1.5 -147.5q1 -57 4 -112.5t6 -112.5
q2 -26 5.5 -51.5t6.5 -51.5q1 -13 13 -13q5 0 10.5 0.5t10.5 -0.5t9 -2t7 -4q2 -2 4 -6.5t1 -8.5q-1 -2 -4.5 -4.5t-6.5 -3.5q-12 0 -24 0.5t-24 1.5q-17 2 -20 18q-5 20 -9.5 39.5t-7.5 39.5q-3 16 -4 31.5t-2 31.5q-2 26 -3 51.5t-2 51.5q-2 66 -3 129t-2 118z" />
    <glyph glyph-name="braceleft" unicode="{" horiz-adv-x="260" 
d="M237 590q-26 -14 -46 -32t-31 -44q-8 -17 -10.5 -35t-4.5 -37q-2 -22 -3.5 -44t-6.5 -43q-18 -87 -82 -153q-11 -11 -8 -28q4 -17 5.5 -34t2.5 -34q2 -29 2 -56.5t2 -56.5q4 -62 50 -108q14 -13 22 -13t22 11q18 13 29 2q14 -14 -1 -31q-11 -15 -32.5 -23t-46.5 8
q-26 16 -42.5 38.5t-27.5 49.5q-10 23 -13 46.5t-4 47.5q-1 30 -1.5 60t-2.5 60q0 9 -2.5 18.5t-4.5 18.5q-6 20 10 34q86 77 97 196q2 22 4.5 43.5t7.5 43.5q8 39 31.5 66.5t56.5 47.5q16 10 35 7q11 -2 17 -10t4 -19q-2 -9 -9 -13q-2 -1 -6 2t-7 5q-1 0 -6 9z" />
    <glyph glyph-name="underscore" unicode="_" horiz-adv-x="469" 
d="M198 50l156 6h14.5t14.5 -1q14 -2 16 -16q0 -13 -14 -16q-8 -2 -15 -3t-15 -1q-76 -2 -151.5 -2.5t-152.5 -1.5h-16t-16 2q-19 3 -19 17t21 14q29 1 58.5 1.5t59.5 1.5h59v-1z" />
    <glyph glyph-name="backslash" unicode="\" horiz-adv-x="339" 
d="M314 8q-2 -4 -4.5 -8.5t-7.5 -6.5q-6 -4 -12 -1.5t-9 8.5q-6 12 -13 28q-28 75 -55.5 150.5t-57.5 150.5t-62 148t-64 148q-2 7 -5 14t-5 14q-6 16 7 23q12 7 22 -9q3 -5 5 -10q143 -309 255 -628q2 -5 3 -9.5t3 -11.5z" />
    <glyph glyph-name="question" unicode="?" horiz-adv-x="260" 
d="M43 354q-11 4 -13 17q-5 30 2 57.5t22.5 50t36.5 38t45 20.5q17 4 34.5 2.5t33.5 -12.5q25 -16 27 -47q3 -28 -5.5 -52t-22.5 -47q-14 -24 -30 -47.5t-30 -47.5q-29 -49 -50.5 -100.5t-38.5 -105.5q-3 -10 -2 -18q4 -18 0.5 -23t-19.5 -9q-17 6 -23 15t-3 27q2 9 4.5 18
t5.5 18q44 143 132 263q11 15 21.5 31t17.5 34q2 7 4 13.5t4 13.5q4 17 -5.5 29t-26.5 14q-33 4 -59 -17t-39.5 -48t-10.5 -62v-13q0 -11 -12 -12zM35 -139q-35 -11 -35 19q0 10 2.5 20t5.5 19q5 14 23 14q9 0 14 -6.5t2 -15.5q-2 -6 -5 -11.5t-5 -12.5q-2 -6 -2 -12.5
v-13.5z" />
    <glyph glyph-name="exclam" unicode="!" horiz-adv-x="115" 
d="M82 510l-12 -111q-2 -24 -4.5 -47.5t-4.5 -47.5q-3 -30 -5.5 -60.5t-4.5 -60.5q-3 -33 -3 -65q-1 -5 0.5 -10t3.5 -10q0 -2 1 -2.5t2 -2.5q8 -21 -4 -29q-7 -5 -16 -2.5t-16 10.5q-8 10 -10.5 21.5t-2.5 23.5q0 20 1 40.5t3 41.5l6 72q3 27 6 54.5t5 54.5l9 84
q1 14 1.5 28t1.5 28q1 7 1.5 13t2.5 12q4 15 17 15q7 0 12.5 -4.5t7.5 -12.5q1 -8 0.5 -16.5t-0.5 -16.5h2zM39 -69q-1 -13 -2 -25.5t-2 -25.5q-1 -16 -17 -18q-13 0 -17 16l-1 2q0 20 0.5 39t4.5 39q0 1 2 7q7 8 19 7q12 -2 12 -14q1 -7 0.5 -13.5t-0.5 -13.5h1z" />
    <glyph glyph-name="comma" unicode="," horiz-adv-x="93" 
d="M31 24v2q-1 20 13 23q8 2 15 -2t11 -13q2 -6 1 -9q0 -47 -32 -78q-9 -9 -22 -7q-10 1 -14.5 8.5t0.5 16.5l9 9q21 21 19 50z" />
    <glyph glyph-name="period" unicode="." horiz-adv-x="68" 
d="M0 27q0 20 16 30q8 6 15.5 2.5t9.5 -14.5q1 -3 1 -6t1 -7q4 -13 -8 -25q-12 -8 -22 -3q-8 4 -10.5 10t-2.5 13z" />
    <glyph glyph-name="asciicircum" unicode="^" horiz-adv-x="404" 
d="M244 561q23 -18 46 -35l46 -34q5 -4 11 -7.5t11 -8.5q15 -17 5 -32q-10 -16 -26 -6q-35 21 -71 46.5t-68 55.5q-12 13 -20 10t-16 -11q-41 -40 -74 -61.5t-62 -39.5q-16 -10 -27 6q-4 7 -2.5 15.5t8.5 16.5q5 5 11 8.5t11 7.5l46 34t46 35q27 23 41 33t25 9.5t23 -11.5
t36 -31z" />
    <glyph glyph-name="bar" unicode="|" horiz-adv-x="143" 
d="M50 20q4 83 6 153t2.5 141.5t1 150.5t2.5 180q0 10 5.5 15.5t12 6.5t12 -3.5t5.5 -14.5q2 -183 -1.5 -345.5t-5.5 -282.5q0 -13 -6.5 -21.5t-14 -9.5t-13.5 6t-6 24z" />
    <glyph glyph-name="quotesingle" unicode="'" horiz-adv-x="80" 
d="M56 542q-2 -16 -4.5 -31.5t-4.5 -30.5q-3 -10 -11 -20q-11 -14 -25 -7q-15 8 -10 27q2 8 4.5 17t3.5 17q2 12 3 24.5t-7 23.5q-8 12 3 23q10 10 25 4q13 -6 18 -21q2 -6 2.5 -12.5t2.5 -13.5z" />
    <glyph glyph-name="quotedbl" unicode="&#x22;" horiz-adv-x="144" 
d="M56 542q-2 -16 -4.5 -31.5t-4.5 -30.5q-3 -10 -11 -20q-11 -14 -25 -7q-15 8 -10 27q2 8 4.5 17t3.5 17q2 12 3 24.5t-7 23.5q-8 12 3 23q10 10 25 4q13 -6 18 -21q2 -6 2.5 -12.5t2.5 -13.5zM131 542q-2 -16 -4.5 -31.5t-4.5 -30.5q-3 -10 -11 -20q-11 -14 -25 -7
q-15 8 -10 27q2 8 4.5 17t3.5 17q2 12 3 24.5t-7 23.5q-8 12 3 23q10 10 25 4q13 -6 18 -21q2 -6 2.5 -12.5t2.5 -13.5z" />
    <glyph glyph-name="grave" unicode="`" horiz-adv-x="113" 
d="M65 556q9 -13 18.5 -25.5t18.5 -24.5q6 -9 6 -22q2 -8 -2 -14t-10 -8q-17 -5 -26 12q-5 8 -9.5 15.5t-9.5 13.5q-8 10 -15.5 19.5t-21.5 11.5q-14 3 -14 19q0 14 15 20q14 6 28 -2q5 -3 10.5 -7t11.5 -8z" />
    <glyph glyph-name="colon" unicode=":" horiz-adv-x="71" 
d="M7 266q0 26 20 37q11 8 20 3.5t11 -18.5q1 -4 1 -7.5t2 -8.5q4 -19 -10 -31q-13 -12 -28 -4q-9 5 -12.5 12.5t-3.5 16.5zM7 116q0 26 20 37q11 8 20 3.5t11 -18.5q1 -4 1 -7.5t2 -8.5q4 -17 -10 -31q-14 -11 -28 -4q-9 5 -12.5 12.5t-3.5 16.5z" />
    <glyph glyph-name="semicolon" unicode=";" horiz-adv-x="85" 
d="M7 266q0 26 20 37q11 8 20 3.5t11 -18.5q1 -4 1 -7.5t2 -8.5q4 -17 -10 -31q-14 -11 -28 -4q-9 5 -12.5 12.5t-3.5 16.5zM31 133v2q-1 20 13 23q8 2 15 -2t11 -13q2 -6 1 -9q0 -47 -32 -78q-9 -9 -22 -7q-10 1 -14.5 8.5t0.5 16.5l9 9q21 21 19 50z" />
    <glyph glyph-name="m" unicode="m" horiz-adv-x="712" 
d="M344 178q-22 -23 -43 -45t-43 -45l-12.5 -12.5t-13.5 -12.5q-7 -7 -17 -12q-17 -10 -32 -5.5t-23 23.5l-9 50q-3 20 -9.5 23t-15.5 -5.5t-20 -25t-21.5 -33.5t-20.5 -31.5t-17 -19.5q-6 -9 -15 -15q-11 -8 -23 -4.5t-17 16.5q-2 5 -3 10.5t-1 11.5q-2 43 0 79.5t9 74.5
q1 5 2.5 9t3.5 8q9 4 17 2t11 -10q-4 -24 -6 -42t-3 -35.5t-0.5 -36.5t1.5 -45q23 35 43.5 66.5t44.5 62.5q7 9 17 18q15 13 30 8t19 -25q3 -14 4.5 -29t4.5 -29q2 -9 4 -19t4 -21q7 5 11.5 8t8.5 7q13 14 25 27t25 26q21 22 42.5 43.5l43.5 43.5q13 13 28 22
q20 13 35.5 6.5t21.5 -28.5q2 -5 1.5 -12.5t-0.5 -12.5q1 -16 1 -31.5v-31.5q0 -14 3.5 -24.5t8.5 -23.5q2 -4 4.5 -8t6.5 -8q4 -5 10 -8t11 -1q12 5 23.5 9t22.5 10q23 14 45 29t45 28q7 4 18.5 11.5t24 15.5t24 15t19.5 11q5 2 11 4q8 2 11 -1.5t7 -9.5q3 -5 2 -13t-6 -13
q-6 -7 -12 -10q-18 -8 -38 -20.5t-40 -26l-40 -27t-36 -23.5q-11 -8 -23 -14t-24 -11q-27 -11 -54 -7q-27 6 -41 26q-17 23 -22 54q-3 20 -4.5 40t1.5 40q3 19 -2.5 21t-14 -4.5t-18.5 -17t-16 -14.5z" />
    <glyph glyph-name="i" unicode="i" horiz-adv-x="256" 
d="M29 217q3 -13 2 -24.5t-3 -23.5q-2 -26 -1 -51t7 -51q0 -3 2 -9q10 -28 35 -14q12 7 23.5 14.5t21.5 16.5q13 12 29 27.5t32.5 32t32.5 32t29 27.5l6 6t7 5q7 5 13.5 4t11.5 -6q8 -10 1 -23q-2 -4 -8 -10q-15 -15 -33 -33.5t-36.5 -37t-37.5 -36t-36 -30.5
q-12 -10 -25 -17.5t-28 -11.5q-46 -14 -68 30q-12 25 -12 55q-2 38 0 76q0 9 1 18t3 18q2 12 9 16t22 0zM4 299q1 2 1 5t2 6q6 14 12 27.5t13 27.5q2 5 5 8.5t6 6.5q7 7 18 2q9 -6 7 -17q-1 -2 -1.5 -5t-2.5 -5q-6 -15 -12.5 -29.5t-13.5 -28.5q-2 -5 -5 -10q-7 -12 -19 -7
q-10 3 -10 19z" />
    <glyph glyph-name="l" unicode="l" horiz-adv-x="297" 
d="M318 206q1 -2 2 -3l3 -3q1 -2 1.5 -4.5t2.5 -4.5q-3 -5 -4.5 -8.5t-4.5 -8.5q-17 -26 -33 -50.5t-32 -50.5q-19 -30 -41 -56.5t-51 -48.5q-22 -17 -45 -26q-23 -7 -47 6q-15 8 -25 20t-18 27q-14 29 -18 58q-5 38 -6.5 76t-0.5 76q2 85 15 166.5t28 163.5q7 40 16.5 79
t18.5 78q2 8 5.5 15.5t5.5 14.5q35 6 27 -25l-10 -42t-10 -43q-13 -58 -22.5 -116.5t-17.5 -118.5q-4 -32 -7.5 -63.5t-5.5 -63.5q-2 -20 -2 -40.5t1 -40.5q0 -23 1 -45.5t3 -45.5q2 -14 6 -28.5t7 -28.5q5 -14 14 -24q15 -23 37 -11q24 15 45 33q26 22 45 49t37 55
q12 19 24 37t25 36q5 8 12.5 11.5t18.5 -1.5z" />
    <glyph glyph-name="NULL" horiz-adv-x="0" 
 />
    <glyph glyph-name="NULL" horiz-adv-x="0" 
 />
    </font>
</defs>
</svg>
